<?xml version="1.0" standalone="no"?>
<!DOCTYPE svg PUBLIC "-//W3C//DTD SVG 20010904//EN"
 "http://www.w3.org/TR/2001/REC-SVG-20010904/DTD/svg10.dtd">
<svg version="1.0" xmlns="http://www.w3.org/2000/svg"
 width="700.000000pt" height="700.000000pt" viewBox="0 0 700.000000 700.000000"
 preserveAspectRatio="xMidYMid meet">
<metadata>
Created by potrace 1.11, written by Peter Selinger 2001-2013
</metadata>
<g transform="translate(0.000000,700.000000) scale(0.100000,-0.100000)"
fill="#000000" stroke="none">
<path d="M3377 6044 c-1 -1 -58 -5 -127 -8 -69 -4 -138 -9 -155 -11 -16 -2
-52 -6 -80 -9 -175 -17 -472 -74 -659 -127 -561 -159 -1031 -444 -1285 -779
-139 -183 -212 -346 -244 -550 -13 -84 -14 -247 -2 -305 3 -16 8 -43 11 -60
34 -207 199 -491 380 -659 l42 -38 -56 -45 c-68 -55 -85 -72 -140 -142 -61
-77 -96 -154 -129 -286 -12 -48 -10 -247 3 -321 8 -44 42 -158 74 -254 127
-372 122 -459 -26 -525 -43 -20 -243 -75 -324 -90 -90 -16 -165 -41 -199 -65
-45 -33 -91 -118 -91 -170 0 -112 80 -210 186 -226 53 -8 262 33 449 87 404
118 574 352 532 734 -3 33 -8 69 -11 80 -22 98 -35 144 -92 312 -71 210 -82
288 -55 386 18 64 88 135 173 175 109 51 118 51 243 -11 239 -120 479 -203
765 -267 127 -29 131 -30 165 -34 17 -2 57 -9 90 -15 62 -11 112 -17 205 -26
30 -3 68 -8 83 -10 15 -3 87 -8 159 -11 120 -6 131 -6 125 10 -4 9 -14 42 -23
74 -9 31 -36 124 -60 205 -24 82 -44 150 -44 152 0 1 -39 6 -87 10 -49 3 -101
9 -118 11 -16 2 -43 6 -60 8 -95 13 -134 20 -261 46 -176 36 -204 43 -344 87
-202 63 -456 175 -564 248 -20 14 -39 25 -43 25 -5 0 -103 69 -113 80 -3 3
-22 18 -43 34 -22 16 -72 61 -112 101 -240 240 -314 524 -203 788 45 109 176
277 291 374 55 47 165 123 247 170 71 42 232 125 250 129 3 0 16 5 30 11 254
107 586 193 875 228 28 4 60 8 73 10 75 12 236 19 437 19 248 1 402 -8 540
-29 17 -3 48 -7 70 -10 33 -5 141 -24 231 -41 51 -9 265 -67 334 -90 572 -189
978 -505 1074 -836 25 -83 27 -96 27 -183 1 -129 -46 -271 -128 -388 -18 -26
-33 -51 -33 -55 0 -4 33 -17 73 -29 276 -83 351 -104 362 -99 18 6 83 136 115
230 28 80 33 100 49 206 9 56 7 255 -3 300 -3 14 -9 41 -12 60 -8 49 -50 172
-82 239 -259 554 -1011 991 -1937 1127 -209 30 -426 46 -658 48 -87 1 -159 0
-160 0z"/>
<path d="M3625 4045 c-59 -21 -95 -74 -95 -139 0 -30 20 -104 85 -321 14 -44
42 -141 64 -215 43 -151 101 -346 257 -875 58 -198 114 -389 124 -425 10 -36
36 -126 58 -200 23 -74 59 -198 82 -275 23 -77 45 -153 50 -170 37 -141 114
-385 129 -405 37 -51 100 -74 161 -58 50 14 74 40 131 143 28 49 54 97 59 105
9 15 61 110 134 244 21 38 47 83 57 100 10 17 23 40 28 51 5 11 90 166 188
343 l179 324 75 40 c41 22 119 65 174 95 55 31 118 66 140 78 44 23 618 340
688 380 24 13 66 36 93 50 27 14 66 39 86 56 62 49 73 136 24 202 -29 40 -50
49 -227 100 -230 67 -719 211 -929 274 -102 30 -198 59 -215 63 -26 7 -265 77
-527 154 -139 41 -232 68 -563 165 -170 50 -330 98 -355 105 -72 23 -112 26
-155 11z"/>
</g>
</svg>
