<?xml version="1.0" standalone="no"?>
<!DOCTYPE svg PUBLIC "-//W3C//DTD SVG 20010904//EN"
 "http://www.w3.org/TR/2001/REC-SVG-20010904/DTD/svg10.dtd">
<svg version="1.0" xmlns="http://www.w3.org/2000/svg"
 width="700.000000pt" height="700.000000pt" viewBox="0 0 700.000000 700.000000"
 preserveAspectRatio="xMidYMid meet">
<metadata>
Created by potrace 1.11, written by Peter Selinger 2001-2013
</metadata>
<g transform="translate(0.000000,700.000000) scale(0.100000,-0.100000)"
fill="#000000" stroke="none">
<path d="M718 6984 c-340 -61 -615 -325 -695 -664 -17 -71 -18 -229 -18 -2820
0 -2591 1 -2749 18 -2820 75 -317 319 -568 638 -653 l84 -22 2755 0 2755 0 84
22 c319 85 563 336 638 653 17 71 18 229 18 2820 0 2591 -1 2749 -18 2820 -74
315 -313 562 -633 652 l-79 23 -2735 2 c-2300 1 -2747 -1 -2812 -13z m3004
-1524 c860 -59 1562 -398 1852 -895 134 -230 158 -502 66 -753 -27 -71 -78
-172 -89 -172 -10 0 -354 101 -360 106 -1 1 8 18 22 36 33 44 76 130 95 192
21 68 20 215 -1 284 -68 222 -266 416 -582 572 -284 140 -579 218 -964 255
-510 49 -1067 -34 -1481 -220 -728 -327 -883 -867 -368 -1281 286 -231 766
-399 1255 -440 l83 -7 10 -36 c5 -20 29 -102 53 -183 24 -81 42 -150 40 -152
-3 -3 -37 -3 -77 0 -481 31 -851 120 -1208 291 -117 56 -117 56 -163 43 -79
-22 -159 -81 -186 -136 -40 -83 -33 -156 35 -359 86 -261 105 -406 71 -540
-54 -204 -207 -324 -510 -399 -230 -57 -258 -61 -304 -48 -48 15 -96 53 -118
95 -20 40 -20 124 0 164 36 69 81 90 277 133 108 24 219 61 256 85 64 41 59
156 -14 371 -29 83 -59 182 -67 220 -19 90 -19 254 0 327 31 119 110 239 205
311 l50 38 -65 70 c-303 327 -376 713 -204 1073 153 321 505 598 978 771 418
152 917 217 1413 184z m1156 -1944 c644 -190 1182 -352 1195 -360 52 -35 67
-121 28 -174 -13 -18 -193 -123 -543 -316 l-523 -289 -119 -216 c-405 -737
-461 -834 -491 -852 -56 -34 -135 -15 -168 40 -14 24 -660 2203 -697 2352 -10
38 -9 52 4 82 17 43 68 77 112 77 17 0 558 -155 1202 -344z"/>
</g>
</svg>
