<?xml version="1.0" encoding="UTF-8"?>
<svg width="32px" height="32px" viewBox="0 0 32 32" version="1.1" xmlns="http://www.w3.org/2000/svg" xmlns:xlink="http://www.w3.org/1999/xlink">
    <!-- Generator: Sketch 47.1 (45422) - http://www.bohemiancoding.com/sketch -->
    <title>favicon</title>
    <desc>Created with Sketch.</desc>
    <defs>
        <rect id="path-1" x="0" y="0" width="32" height="32" rx="4"></rect>
        <filter x="-22.9%" y="-28.6%" width="154.2%" height="171.9%" filterUnits="objectBoundingBox" id="filter-2">
            <feOffset dx="1" dy="1" in="SourceAlpha" result="shadowOffsetOuter1"></feOffset>
            <feGaussianBlur stdDeviation="2" in="shadowOffsetOuter1" result="shadowBlurOuter1"></feGaussianBlur>
            <feColorMatrix values="0 0 0 0 0.364705882   0 0 0 0 0.443137255   0 0 0 0 0.694117647  0 0 0 1 0" type="matrix" in="shadowBlurOuter1" result="shadowMatrixOuter1"></feColorMatrix>
            <feMerge>
                <feMergeNode in="shadowMatrixOuter1"></feMergeNode>
                <feMergeNode in="SourceGraphic"></feMergeNode>
            </feMerge>
        </filter>
    </defs>
    <g id="Page-1" stroke="none" stroke-width="1" fill="none" fill-rule="evenodd">
        <g id="Rectangle">
            <use fill="#506198" fill-rule="evenodd" xlink:href="#path-1"></use>
            <rect stroke="#5D71B1" stroke-width="1" x="0.5" y="0.5" width="31" height="31" rx="4"></rect>
        </g>
        <g id="favicon-lasso" filter="url(#filter-2)" transform="translate(4.000000, 7.000000)" fill-rule="nonzero" fill="#FFFFFF">
            <path d="M11.8533803,1.67879286 C16.4690885,1.67879286 20.3689664,3.7448165 20.3689664,6.18998378 C20.3689664,6.78219948 20.13522,7.35305566 19.7225398,7.87710163 L21.3996957,8.37203393 C21.8077332,7.69523636 22.0408163,6.96254246 22.0408163,6.18998378 C22.0408163,2.71894038 17.5658107,0 11.8533803,0 C6.14142357,0 1.6659442,2.71917824 1.6659442,6.18998378 C1.6659442,7.47050932 2.27878215,8.64671089 3.33305671,9.62320795 C3.0037558,9.83737415 2.68137158,10.1228022 2.44070856,10.5263024 C1.94550177,11.3563749 1.93569523,12.3858664 2.41015194,13.5875186 C2.85703663,14.7192886 2.74769603,15.1374883 2.67985559,15.2639329 C2.52096115,15.564679 1.82095392,15.7165267 1.14562886,15.8631416 C0.98048097,15.8992007 0.812111607,15.9359734 0.64431074,15.9759333 C0.195009942,16.0824931 -0.0830316423,16.5337074 0.022282115,16.985873 C0.112388623,17.3717242 0.456423038,17.6326531 0.835230417,17.6326531 C0.898712394,17.6326531 0.963568235,17.6250416 1.02795033,17.6104372 C1.18523403,17.5728083 1.34327573,17.5382239 1.49847495,17.5044959 C2.49855296,17.2873802 3.63127988,17.0410558 4.15524306,16.054426 C4.557264,15.2979465 4.49610338,14.3173107 3.96432339,12.9694241 C3.69310375,12.2827317 3.6618365,11.7533102 3.87208502,11.3948125 C4.10729996,10.992787 4.63671122,10.8141091 4.92332761,10.7541692 C6.61483805,11.7009341 8.84831402,12.2932926 11.3468509,12.3653631 L10.849228,10.6651632 C6.68642108,10.3912474 3.33750993,8.45547407 3.33750993,6.19012649 C3.33751466,3.74495921 7.23738779,1.67893558 11.853096,1.67893558" id="Shape"></path>
            <path d="M23.5899399,10.4894964 L12.9768571,7.36997553 C12.9235647,7.35382113 12.8696031,7.34693878 12.8156415,7.34693878 C12.6668528,7.34693878 12.5213143,7.40558214 12.4125308,7.51421812 C12.2645546,7.66142395 12.2090158,7.8780746 12.2681871,8.07766276 L15.3878265,18.6927322 C15.451873,18.9132063 15.6436302,19.0742247 15.8726204,19.098982 C15.894272,19.1012283 15.9152066,19.1020408 15.9358066,19.1020408 C16.1417592,19.1020408 16.3328473,18.9902982 16.4347482,18.8075336 L19.0195512,14.1218001 L23.7049847,11.5366173 C23.9069224,11.4256394 24.0218238,11.2044005 23.9965398,10.9761359 C23.9719727,10.7473455 23.8113784,10.5553088 23.5901789,10.4897831" id="Shape"></path>
        </g>
    </g>
</svg>