<?xml version="1.0" encoding="UTF-8"?>
<svg width="163px" height="35px" viewBox="0 0 163 35" version="1.1" xmlns="http://www.w3.org/2000/svg" xmlns:xlink="http://www.w3.org/1999/xlink">
    <!-- Generator: Sketch 47.1 (45422) - http://www.bohemiancoding.com/sketch -->
    <title>logo</title>
    <desc>Created with Sketch.</desc>
    <defs></defs>
    <g id="Page-1" stroke="none" stroke-width="1" fill="none" fill-rule="evenodd">
        <g id="Desktop-HD" transform="translate(-21.000000, -5.000000)" fill="#FFFFFF">
            <path d="M78.21,34.35 C77.3466624,34.35 76.5475037,34.2041681 75.8125,33.9125 C75.0774963,33.6208319 74.4358361,33.2183359 73.8875,32.705 C73.3391639,32.1916641 72.9133348,31.5908368 72.61,30.9025 C72.3066652,30.2141632 72.155,29.4733373 72.155,28.68 C72.155,27.8866627 72.3416648,27.1516701 72.715,26.475 C73.0883352,25.7983299 73.6133299,25.2150025 74.29,24.725 C74.9666701,24.2349975 75.771662,23.8558347 76.705,23.5875 C77.638338,23.3191653 78.6649944,23.185 79.785,23.185 C80.718338,23.185 81.6633286,23.2666659 82.62,23.43 C83.5766715,23.5933341 84.4283296,23.8266651 85.175,24.13 L85.175,22.485 C85.175,20.874992 84.7200045,19.5975047 83.81,18.6525 C82.8999955,17.7074953 81.6400081,17.235 80.03,17.235 C79.096662,17.235 78.1400049,17.4216648 77.16,17.795 C76.1799951,18.1683352 75.1883383,18.7049965 74.185,19.405 L73.345,17.83 C75.7016785,16.2433254 77.9883222,15.45 80.205,15.45 C82.4916781,15.45 84.2883268,16.0916603 85.595,17.375 C86.9016732,18.6583398 87.555,20.4316553 87.555,22.695 L87.555,30.92 C87.555,31.5733366 87.8466638,31.9 88.43,31.9 L88.43,34 C88.0333313,34.0700004 87.730001,34.105 87.52,34.105 C86.9133303,34.105 86.440835,33.9533349 86.1025,33.65 C85.764165,33.3466652 85.5833334,32.9266693 85.56,32.39 L85.49,30.955 C84.6499958,32.0516722 83.594173,32.8916638 82.3225,33.475 C81.050827,34.0583362 79.6800073,34.35 78.21,34.35 Z M78.77,32.53 C80.0066729,32.53 81.1441615,32.296669 82.1825,31.83 C83.2208385,31.363331 84.0083307,30.7450038 84.545,29.975 C84.7550011,29.7649989 84.9124995,29.5375012 85.0175,29.2925 C85.1225005,29.0474988 85.175,28.8200011 85.175,28.61 L85.175,25.635 C84.3816627,25.3316651 83.5591709,25.0983341 82.7075,24.935 C81.8558291,24.7716658 80.9866711,24.69 80.1,24.69 C78.4199916,24.69 77.0550052,25.0399965 76.005,25.74 C74.9549947,26.4400035 74.43,27.361661 74.43,28.505 C74.43,29.0650028 74.5408322,29.5899975 74.7625,30.08 C74.9841678,30.5700025 75.2874981,30.9958315 75.6725,31.3575 C76.0575019,31.7191685 76.5183306,32.004999 77.055,32.215 C77.5916694,32.425001 78.1633303,32.53 78.77,32.53 Z M93.405,8.45 L95.785,8.45 L95.785,29.87 C95.785,30.54667 95.9716648,31.0774981 96.345,31.4625 C96.7183352,31.8475019 97.24333,32.04 97.92,32.04 C98.176668,32.04 98.4799983,32.0050004 98.83,31.935 C99.1800018,31.8649997 99.5066652,31.7716673 99.81,31.655 L100.23,33.58 C99.7866645,33.7666676 99.2441699,33.9183327 98.6025,34.035 C97.9608301,34.1516673 97.406669,34.21 96.94,34.21 C95.8433279,34.21 94.9800032,33.9008364 94.35,33.2825 C93.7199969,32.6641636 93.405,31.7950056 93.405,30.675 L93.405,8.45 Z M112.17,33.125 C112.029999,33.1950004 111.825835,33.2883328 111.5575,33.405 C111.289165,33.5216673 110.980002,33.6383328 110.63,33.755 C110.279998,33.8716673 109.883336,33.9766662 109.44,34.07 C108.996664,34.1633338 108.530002,34.21 108.04,34.21 C107.526664,34.21 107.036669,34.1400007 106.57,34 C106.103331,33.8599993 105.695002,33.6441681 105.345,33.3525 C104.994998,33.0608319 104.715001,32.6933356 104.505,32.25 C104.294999,31.8066644 104.19,31.2933362 104.19,30.71 L104.19,17.655 L101.67,17.655 L101.67,15.765 L104.19,15.765 L104.19,9.605 L106.57,9.605 L106.57,15.765 L110.77,15.765 L110.77,17.655 L106.57,17.655 L106.57,30.045 C106.616667,30.7216701 106.855831,31.2174984 107.2875,31.5325 C107.719169,31.8475016 108.214997,32.005 108.775,32.005 C109.45167,32.005 110.046664,31.8941678 110.56,31.6725 C111.073336,31.4508322 111.399999,31.2933338 111.54,31.2 L112.17,33.125 Z M116.62,34 L116.62,17.655 L114.1,17.655 L114.1,15.765 L116.62,15.765 L116.62,15.275 C116.62,13.0349888 117.098329,11.279173 118.055,10.0075 C119.011672,8.73582697 120.318325,8.1 121.975,8.1 C122.698337,8.1 123.39833,8.20499895 124.075,8.415 C124.75167,8.62500105 125.334998,8.90499825 125.825,9.255 L125.09,10.97 C124.763332,10.713332 124.360836,10.5150007 123.8825,10.375 C123.404164,10.2349993 122.920003,10.165 122.43,10.165 C121.309994,10.165 120.458336,10.5966623 119.875,11.46 C119.291664,12.3233376 119,13.5716585 119,15.205 L119,15.765 L124.04,15.765 L124.04,17.655 L119,17.655 L119,34 L116.62,34 Z M134.755,34.35 C133.424993,34.35 132.211672,34.0991692 131.115,33.5975 C130.018328,33.0958308 129.067504,32.4133377 128.2625,31.55 C127.457496,30.6866624 126.833336,29.6833391 126.39,28.54 C125.946665,27.396661 125.725,26.1950063 125.725,24.935 C125.725,23.6516602 125.952498,22.4383391 126.4075,21.295 C126.862502,20.151661 127.492496,19.1483377 128.2975,18.285 C129.102504,17.4216623 130.053328,16.7333359 131.15,16.22 C132.246672,15.7066641 133.448327,15.45 134.755,15.45 C136.061673,15.45 137.269161,15.7066641 138.3775,16.22 C139.485839,16.7333359 140.442496,17.4216623 141.2475,18.285 C142.052504,19.1483377 142.682498,20.151661 143.1375,21.295 C143.592502,22.4383391 143.82,23.6516602 143.82,24.935 C143.82,26.1950063 143.598336,27.396661 143.155,28.54 C142.711665,29.6833391 142.087504,30.6866624 141.2825,31.55 C140.477496,32.4133377 139.520839,33.0958308 138.4125,33.5975 C137.304161,34.0991692 136.085007,34.35 134.755,34.35 Z M128.14,24.97 C128.14,25.9966718 128.314998,26.9474956 128.665,27.8225 C129.015002,28.6975044 129.487497,29.4674967 130.0825,30.1325 C130.677503,30.7975033 131.377496,31.3166648 132.1825,31.69 C132.987504,32.0633352 133.844996,32.25 134.755,32.25 C135.665005,32.25 136.522496,32.0575019 137.3275,31.6725 C138.132504,31.2874981 138.83833,30.7625033 139.445,30.0975 C140.05167,29.4324967 140.529998,28.6566711 140.88,27.77 C141.230002,26.8833289 141.405,25.9266718 141.405,24.9 C141.405,23.8966617 141.230002,22.9458378 140.88,22.0475 C140.529998,21.1491622 140.05167,20.3675033 139.445,19.7025 C138.83833,19.0374967 138.132504,18.5125019 137.3275,18.1275 C136.522496,17.7424981 135.665005,17.55 134.755,17.55 C133.844996,17.55 132.993337,17.7424981 132.2,18.1275 C131.406663,18.5125019 130.70667,19.04333 130.1,19.72 C129.49333,20.3966701 129.015002,21.1841622 128.665,22.0825 C128.314998,22.9808378 128.14,23.9433282 128.14,24.97 Z M148.515,8.45 L150.895,8.45 L150.895,29.87 C150.895,30.54667 151.081665,31.0774981 151.455,31.4625 C151.828335,31.8475019 152.35333,32.04 153.03,32.04 C153.286668,32.04 153.589998,32.0050004 153.94,31.935 C154.290002,31.8649997 154.616665,31.7716673 154.92,31.655 L155.34,33.58 C154.896665,33.7666676 154.35417,33.9183327 153.7125,34.035 C153.07083,34.1516673 152.516669,34.21 152.05,34.21 C150.953328,34.21 150.090003,33.9008364 149.46,33.2825 C148.829997,32.6641636 148.515,31.7950056 148.515,30.675 L148.515,8.45 Z M158.53,34 L158.53,15.765 L160.91,15.765 L160.91,34 L158.53,34 Z M158.53,11.95 L158.53,8.45 L160.91,8.45 L160.91,11.95 L158.53,11.95 Z M174.53,34.35 C173.199994,34.35 171.986672,34.0991692 170.89,33.5975 C169.793328,33.0958308 168.842504,32.4133377 168.0375,31.55 C167.232496,30.6866624 166.608336,29.6833391 166.165,28.54 C165.721665,27.396661 165.5,26.1950063 165.5,24.935 C165.5,23.6516602 165.727498,22.4383391 166.1825,21.295 C166.637502,20.151661 167.267496,19.1483377 168.0725,18.285 C168.877504,17.4216623 169.828328,16.7333359 170.925,16.22 C172.021672,15.7066641 173.223327,15.45 174.53,15.45 C175.836673,15.45 177.044161,15.7066641 178.1525,16.22 C179.260839,16.7333359 180.217496,17.4216623 181.0225,18.285 C181.827504,19.1483377 182.457498,20.151661 182.9125,21.295 C183.367502,22.4383391 183.595,23.6516602 183.595,24.935 C183.595,26.1950063 183.373336,27.396661 182.93,28.54 C182.486665,29.6833391 181.862504,30.6866624 181.0575,31.55 C180.252496,32.4133377 179.295839,33.0958308 178.1875,33.5975 C177.079161,34.0991692 175.860007,34.35 174.53,34.35 Z M167.915,24.97 C167.915,25.9966718 168.089998,26.9474956 168.44,27.8225 C168.790002,28.6975044 169.262497,29.4674967 169.8575,30.1325 C170.452503,30.7975033 171.152496,31.3166648 171.9575,31.69 C172.762504,32.0633352 173.619996,32.25 174.53,32.25 C175.440005,32.25 176.297496,32.0575019 177.1025,31.6725 C177.907504,31.2874981 178.61333,30.7625033 179.22,30.0975 C179.82667,29.4324967 180.304998,28.6566711 180.655,27.77 C181.005002,26.8833289 181.18,25.9266718 181.18,24.9 C181.18,23.8966617 181.005002,22.9458378 180.655,22.0475 C180.304998,21.1491622 179.82667,20.3675033 179.22,19.7025 C178.61333,19.0374967 177.907504,18.5125019 177.1025,18.1275 C176.297496,17.7424981 175.440005,17.55 174.53,17.55 C173.619996,17.55 172.768337,17.7424981 171.975,18.1275 C171.181663,18.5125019 170.48167,19.04333 169.875,19.72 C169.26833,20.3966701 168.790002,21.1841622 168.44,22.0825 C168.089998,22.9808378 167.915,23.9433282 167.915,24.97 Z" id="altfolio"></path>
            <g id="Lasso" transform="translate(21.000000, 8.000000)" fill-rule="nonzero">
                <path d="M19.7556338,2.79798811 C27.4484808,2.79798811 33.9482773,6.24136083 33.9482773,10.3166396 C33.9482773,11.3036658 33.5587,12.2550928 32.8708997,13.1285027 L35.6661596,13.9533899 C36.3462221,12.8253939 36.7346939,11.6042374 36.7346939,10.3166396 C36.7346939,4.53156731 29.2763512,0 19.7556338,0 C10.235706,0 2.77657366,4.53196373 2.77657366,10.3166396 C2.77657366,12.4508489 3.79797025,14.4111848 5.55509452,16.0386799 C5.00625967,16.3956236 4.46895264,16.8713371 4.06784761,17.5438374 C3.24250295,18.9272914 3.22615871,20.6431107 4.0169199,22.6458644 C4.76172772,24.5321476 4.57949339,25.2291472 4.46642599,25.4398882 C4.20160192,25.9411317 3.0349232,26.1942112 1.90938143,26.4385694 C1.63413495,26.4986679 1.35351935,26.5599556 1.07385123,26.6265555 C0.32501657,26.8041552 -0.138386071,27.5561789 0.0371368583,28.3097884 C0.187314371,28.9528737 0.760705063,29.3877551 1.3920507,29.3877551 C1.49785399,29.3877551 1.60594706,29.3750694 1.71325055,29.3507287 C1.97539006,29.2880138 2.23879289,29.2303732 2.49745825,29.1741598 C4.16425494,28.8123004 6.05213313,28.4017596 6.92540511,26.7573767 C7.59544,25.4965774 7.49350563,23.8621845 6.60720564,21.6157069 C6.15517291,20.4712195 6.10306084,19.5888503 6.45347503,18.9913542 C6.84549993,18.3213117 7.72785204,18.0235151 8.20554602,17.9236153 C11.0247301,19.5015569 14.74719,20.4888209 18.9114182,20.6089386 L18.0820467,17.775272 C11.1440351,17.3187456 5.56251654,14.0924568 5.56251654,10.3168775 C5.56252444,6.24159869 12.062313,2.79822596 19.75516,2.79822596" id="Shape"></path>
                <path d="M39.3165666,17.482494 L21.6280952,12.2832926 C21.5392745,12.2563685 21.4493385,12.244898 21.3594025,12.244898 C21.1114214,12.244898 20.8688571,12.3426369 20.6875513,12.5236969 C20.4409244,12.7690399 20.3483596,13.1301243 20.4469785,13.4627713 L25.6463774,31.1545536 C25.7531216,31.5220106 26.072717,31.7903744 26.4543674,31.8316367 C26.4904533,31.8353805 26.5253443,31.8367347 26.5596777,31.8367347 C26.902932,31.8367347 27.2214121,31.650497 27.3912469,31.3458893 L31.699252,23.5363335 L39.5083078,19.2276955 C39.8448707,19.0427323 40.036373,18.6740008 39.994233,18.2935598 C39.9532878,17.9122426 39.6856307,17.5921814 39.3169649,17.4829719" id="Shape"></path>
            </g>
        </g>
    </g>
</svg>