<?xml version="1.0" encoding="UTF-8"?>
<svg width="163px" height="35px" viewBox="0 0 163 35" version="1.1" xmlns="http://www.w3.org/2000/svg" xmlns:xlink="http://www.w3.org/1999/xlink">
    <!-- Generator: Sketch 47.1 (45422) - http://www.bohemiancoding.com/sketch -->
    <title>Slice</title>
    <desc>Created with Sketch.</desc>
    <defs></defs>
    <g id="Page-1" stroke="none" stroke-width="1" fill="none" fill-rule="evenodd">
        <g id="Desktop-HD" transform="translate(-21.000000, -5.000000)" fill="#FFFFFF">
            <text id="altfolio" font-family="Raleway-Regular, Raleway" font-size="35" font-weight="normal" letter-spacing="0.600000024">
                <tspan x="71" y="34">altfoli</tspan>
                <tspan x="164.135" y="34">o</tspan>
            </text>
            <g id="Lasso" transform="translate(21.000000, 8.000000)" fill-rule="nonzero">
                <path d="M19.7556338,2.79798811 C27.4484808,2.79798811 33.9482773,6.24136083 33.9482773,10.3166396 C33.9482773,11.3036658 33.5587,12.2550928 32.8708997,13.1285027 L35.6661596,13.9533899 C36.3462221,12.8253939 36.7346939,11.6042374 36.7346939,10.3166396 C36.7346939,4.53156731 29.2763512,0 19.7556338,0 C10.235706,0 2.77657366,4.53196373 2.77657366,10.3166396 C2.77657366,12.4508489 3.79797025,14.4111848 5.55509452,16.0386799 C5.00625967,16.3956236 4.46895264,16.8713371 4.06784761,17.5438374 C3.24250295,18.9272914 3.22615871,20.6431107 4.0169199,22.6458644 C4.76172772,24.5321476 4.57949339,25.2291472 4.46642599,25.4398882 C4.20160192,25.9411317 3.0349232,26.1942112 1.90938143,26.4385694 C1.63413495,26.4986679 1.35351935,26.5599556 1.07385123,26.6265555 C0.32501657,26.8041552 -0.138386071,27.5561789 0.0371368583,28.3097884 C0.187314371,28.9528737 0.760705063,29.3877551 1.3920507,29.3877551 C1.49785399,29.3877551 1.60594706,29.3750694 1.71325055,29.3507287 C1.97539006,29.2880138 2.23879289,29.2303732 2.49745825,29.1741598 C4.16425494,28.8123004 6.05213313,28.4017596 6.92540511,26.7573767 C7.59544,25.4965774 7.49350563,23.8621845 6.60720564,21.6157069 C6.15517291,20.4712195 6.10306084,19.5888503 6.45347503,18.9913542 C6.84549993,18.3213117 7.72785204,18.0235151 8.20554602,17.9236153 C11.0247301,19.5015569 14.74719,20.4888209 18.9114182,20.6089386 L18.0820467,17.775272 C11.1440351,17.3187456 5.56251654,14.0924568 5.56251654,10.3168775 C5.56252444,6.24159869 12.062313,2.79822596 19.75516,2.79822596" id="Shape"></path>
                <path d="M39.3165666,17.482494 L21.6280952,12.2832926 C21.5392745,12.2563685 21.4493385,12.244898 21.3594025,12.244898 C21.1114214,12.244898 20.8688571,12.3426369 20.6875513,12.5236969 C20.4409244,12.7690399 20.3483596,13.1301243 20.4469785,13.4627713 L25.6463774,31.1545536 C25.7531216,31.5220106 26.072717,31.7903744 26.4543674,31.8316367 C26.4904533,31.8353805 26.5253443,31.8367347 26.5596777,31.8367347 C26.902932,31.8367347 27.2214121,31.650497 27.3912469,31.3458893 L31.699252,23.5363335 L39.5083078,19.2276955 C39.8448707,19.0427323 40.036373,18.6740008 39.994233,18.2935598 C39.9532878,17.9122426 39.6856307,17.5921814 39.3169649,17.4829719" id="Shape"></path>
            </g>
        </g>
    </g>
</svg>