<?xml version="1.0" encoding="UTF-8"?>
<svg width="32px" height="32px" viewBox="0 0 32 32" version="1.1" xmlns="http://www.w3.org/2000/svg" xmlns:xlink="http://www.w3.org/1999/xlink">
    <!-- Generator: Sketch 47.1 (45422) - http://www.bohemiancoding.com/sketch -->
    <title>AAPL</title>
    <desc>Created with Sketch.</desc>
    <defs></defs>
    <g id="Page-1" stroke="none" stroke-width="1" fill="none" fill-rule="evenodd">
        <g id="AAPL" fill-rule="nonzero">
            <circle id="Oval" fill="#999999" cx="16" cy="16" r="16"></circle>
            <path d="M23.9933287,20.0860721 C23.6908687,20.7848165 23.3328548,21.4280069 22.9180525,22.019347 C22.3526375,22.8254955 21.8896886,23.3835033 21.5329092,23.6933705 C20.9798395,24.2019971 20.3872648,24.4624831 19.7527161,24.4772975 C19.2971743,24.4772975 18.7478082,24.3476717 18.1083214,24.0847167 C17.4667358,23.8229962 16.877124,23.6933705 16.3380045,23.6933705 C15.7725895,23.6933705 15.1661881,23.8229962 14.5175657,24.0847167 C13.8679557,24.3476717 13.3446382,24.4847046 12.9445268,24.4982845 C12.3360267,24.5242096 11.7295018,24.2563165 11.124088,23.6933705 C10.7376799,23.3563437 10.2543612,22.7785834 9.67536635,21.9600896 C9.05415056,21.0860419 8.54342525,20.0724923 8.14331389,18.9169717 C7.71480832,17.6688613 7.5,16.4602558 7.5,15.2901677 C7.5,13.9498379 7.78962088,12.7938234 8.3697268,11.8250873 C8.82563895,11.0469626 9.43216383,10.433154 10.1912767,9.98255035 C10.9503895,9.53194668 11.7706117,9.30232399 12.6539183,9.28763308 C13.137237,9.28763308 13.771045,9.43713473 14.5586756,9.73095301 C15.3440839,10.0257589 15.8483897,10.1752606 16.0694941,10.1752606 C16.2347977,10.1752606 16.7950277,10.000451 17.7447521,9.65194306 C18.6428731,9.32874295 19.4008749,9.19491983 20.0218438,9.24763429 C21.704509,9.38343265 22.9686683,10.0467459 23.8093836,11.2417715 C22.3044908,12.1535958 21.5600689,13.4307177 21.5748833,15.0690633 C21.5884631,16.3451976 22.0514121,17.4071408 22.9612611,18.2503252 C23.3735943,18.6416714 23.8340742,18.9441313 24.3464044,19.1589397 C24.2352967,19.4811522 24.1180163,19.7897848 23.9933287,20.0860721 L23.9933287,20.0860721 Z M20.1341861,4.90011136 C20.1341861,5.90034039 19.768765,6.83425044 19.040392,7.69866876 C18.1614062,8.72629202 17.0982284,9.32010123 15.9453003,9.22640036 C15.9306094,9.10640399 15.9220911,8.98011151 15.9220911,8.84739947 C15.9220911,7.88718158 16.3401032,6.85955832 17.0824264,6.0193368 C17.4530325,5.59391756 17.9243763,5.24018751 18.495964,4.95801085 C19.0663171,4.68004394 19.605807,4.52632019 20.113199,4.5 C20.1280134,4.63371201 20.1341861,4.76743636 20.1341861,4.90009902 L20.1341861,4.90011136 Z" id="Shape" fill="#FFFFFF"></path>
        </g>
    </g>
</svg>