<?xml version="1.0" encoding="UTF-8"?>
<svg width="32px" height="32px" viewBox="0 0 32 32" version="1.1" xmlns="http://www.w3.org/2000/svg" xmlns:xlink="http://www.w3.org/1999/xlink">
    <!-- Generator: Sketch 47.1 (45422) - http://www.bohemiancoding.com/sketch -->
    <title>AMZN</title>
    <desc>Created with Sketch.</desc>
    <defs></defs>
    <g id="Page-1" stroke="none" stroke-width="1" fill="none" fill-rule="evenodd">
        <g id="AMZN" fill-rule="nonzero">
            <circle id="Oval" fill="#FF9900" cx="16" cy="16" r="16"></circle>
            <path d="M15.7278571,12.8484965 C14.8718578,12.9590464 14.0158584,13.1094463 13.3085589,13.443846 C11.9313599,14.0042456 11.0004106,15.1964947 11.0004106,16.9495435 C11.0004106,19.1504419 12.4153096,20.267241 14.2017082,20.267241 C14.7982078,20.267241 15.2820075,20.1939411 15.7278071,20.0817412 C16.4356066,19.8576913 17.0313062,19.4482416 17.7382557,18.7019422 C18.1478554,19.2621918 18.2589053,19.5233416 18.9670048,20.1188412 C19.1532546,20.1939411 19.3394045,20.1939411 19.4876544,20.0817412 C19.9342541,19.7088415 20.7157035,19.0380919 21.1263032,18.6652422 C21.3118031,18.5146423 21.2740531,18.2920925 21.1632532,18.1050426 C20.7533535,17.583293 20.3442038,17.1349933 20.3442038,16.1297441 L20.3442038,12.7731965 C20.3442038,11.3552476 20.4549037,10.0505485 19.4135044,9.08209921 C18.5573551,8.29774978 17.217006,8 16.1750068,8 C16.0255069,8 15.877557,8 15.7276571,8 C13.8294085,8.11234992 11.81921,8.93174932 11.3715603,11.2814476 C11.2984604,11.5791974 11.5221602,11.6913473 11.6710101,11.7295473 L13.7548586,11.9907471 C13.9784084,11.9520971 14.0894083,11.7661973 14.1264583,11.5790974 C14.3134582,10.759698 14.9832577,10.3499483 15.7276571,10.2747483 C15.7653571,10.2747483 15.8028571,10.2747483 15.877557,10.2747483 C16.3228067,10.2747483 16.8068563,10.4618982 17.0682062,10.8331479 C17.3648059,11.2813976 17.328706,11.8783472 17.328706,12.4000968 L17.328706,12.6981466 C16.8447563,12.7364465 16.2862067,12.7732965 15.7278571,12.8484965 Z M16.9191563,17.1351433 C16.6587565,17.6569929 16.2121068,17.9928427 15.7278071,18.1051426 C15.6537572,18.1051426 15.5429073,18.1434426 15.4304574,18.1434426 C14.6119079,18.1434426 14.1266083,17.5097931 14.1266083,16.5767437 C14.1266083,15.3839446 14.8345578,14.823945 15.7277571,14.5628952 C16.2121068,14.4508453 16.7707564,14.4137953 17.328806,14.4137953 L17.328806,14.862095 C17.328906,15.7201944 17.3650559,16.3906439 16.9191563,17.1351433 Z M25.5,20.8251906 L25.5,20.7031907 C25.5,20.5404408 25.45985,20.4201409 25.4200001,20.359191 C25.2377002,20.1369411 23.9015512,19.9330413 22.749902,20.277841 C22.4265022,20.380091 22.1426025,20.5210909 21.8801026,20.7031907 C21.6775528,20.8458906 21.7182028,21.0263905 21.9202026,21.0071905 C22.1425525,20.9660405 22.4265022,20.9467905 22.749902,20.9047906 C23.4578515,20.8457906 24.2870009,20.8251906 24.4891007,21.0878904 C24.7712005,21.4313902 24.165701,22.9312891 23.9016512,23.5797886 C23.8220012,23.7830385 24.0031511,23.8645884 24.185501,23.7221385 C25.0955503,22.9522391 25.48,21.5546901 25.5,20.8251906 Z M15.4899573,24.6139379 C17.8762056,24.6139379 20.6263036,23.9448884 22.749902,22.6689893 C23.0337018,22.5054894 23.3157016,22.3233895 23.5781514,22.1213897 C23.9424511,21.8588899 23.6190014,21.4523902 23.2550016,21.6140401 C23.0935518,21.67479 22.9113519,21.75689 22.749852,21.8173399 C20.4229037,22.7297392 17.9778055,23.1553389 15.7117571,23.1553389 C12.1113598,23.1553389 8.63376231,22.1618397 5.82246437,20.5211409 C5.55951456,20.380041 5.37711469,20.6425408 5.60041453,20.8251906 C8.20891262,23.1953889 11.6466601,24.6139379 15.4899573,24.6139379 Z" id="smile" fill="#FFFFFF"></path>
        </g>
    </g>
</svg>