<?xml version="1.0" encoding="UTF-8"?>
<svg width="32px" height="32px" viewBox="0 0 32 32" version="1.1" xmlns="http://www.w3.org/2000/svg" xmlns:xlink="http://www.w3.org/1999/xlink">
    <!-- Generator: Sketch 47.1 (45422) - http://www.bohemiancoding.com/sketch -->
    <title>BABA</title>
    <desc>Created with Sketch.</desc>
    <defs></defs>
    <g id="Page-1" stroke="none" stroke-width="1" fill="none" fill-rule="evenodd">
        <g id="BABA" fill-rule="nonzero">
            <circle id="Oval" fill="#FF6600" cx="16" cy="16" r="16"></circle>
            <g id="head" transform="translate(5.000000, 8.500000)">
                <path d="M2.80989583,11.0854167 C2.70364583,11.0614583 2.55026042,10.9791667 2.43229167,10.8846354 C1.35859375,9.85833333 2.72708333,8.65494792 4.30807292,7.95911458 L4.30807292,5.97708333 C4.68567708,6.20130208 4.87421875,6.22473958 4.89791667,6.26015625 L6.10130208,5.05677083 L5.7,4.0421875 C9.23932292,2.81536458 10.6666667,2.34348958 13.5450521,1.85963542 L13.0263021,1.38776042 L13.8757812,0.892447917 C15.8106771,1.54140625 17.615625,1.70651042 17.3091146,3.32291667 C17.3914062,2.2375 16.034375,1.81276042 13.9348958,1.22291667 L13.5453125,1.47057292 L14.3122396,2.10755208 C10.8674479,2.709375 8.74401042,3.37005208 6.23098958,4.24296875 L6.56145833,5.13932292 L5.31067708,6.378125 C5.52317708,6.43723958 7.71744792,7.18046875 10.0179687,5.57604167 C10.0296875,5.56432292 10.0651042,5.55234375 10.0651042,5.52864583 C9.98255208,5.41067708 9.84088542,5.30442708 9.65234375,5.12734375 C10.3130208,5.17473958 10.7494792,5.76432292 10.6669271,6.37786458 L10.3601562,6.37786458 C10.3955729,6.1890625 10.3484375,5.96510417 10.2658854,5.8234375 C8.50807292,7.12109375 6.44348958,7.30989583 4.68567708,6.69661458 L4.68567708,8.23020833 C3.82421875,8.525 2.30260417,9.46901042 2.31432292,10.3773438 C2.37317708,10.8138021 2.59739583,10.9674479 2.80989583,11.0854167 Z" id="Shape" fill="#FFD6BB"></path>
                <path d="M9.99427083,10.6841146 C8.09479167,11.6632813 6.27786458,12.4302083 3.44661458,12.5364583 C-0.198958333,12.4653646 -0.765104167,10.0351562 0.969010417,7.49869792 C2.596875,4.93880208 5.19270833,2.61458333 9.33333333,1.16354167 C10.5130208,0.750520833 12.2947917,0.255208333 13.9817708,0.243229167 C16.4236979,0.219791667 18.7947917,0.986458333 18.6419271,3.31067708 C18.5591146,5.10390625 15.9757813,7.64036458 14.61875,9.45729167 C14.0286458,10.2479167 13.9346354,10.7549479 14.9255208,10.7192708 C18.5239583,10.4838542 21.8153646,9.23307292 24.8356771,7.93541667 C22.80625,9.315625 12.1653646,14.5888021 12.10625,10.9908854 C12.1179688,10.5427083 12.3421875,10.0588542 12.6841146,9.5515625 C13.0263021,9.04427083 13.4984375,8.5015625 13.9820313,7.94713542 C14.7018229,7.12135417 16.4945313,5.13932292 17.0963542,3.94791667 C18.1109375,1.70651042 15.8338542,1.58828125 13.8757813,0.892447917 L13.0263021,1.38776042 L13.5333333,1.85963542 C10.6666667,2.34322917 9.2390625,2.81510417 5.69973958,4.0421875 L6.10104167,5.05677083 L4.89765625,6.26015625 C4.87395833,6.22473958 4.68541667,6.20130208 4.3078125,5.97708333 L4.3078125,7.95911458 C2.72708333,8.65494792 1.35833333,9.85833333 2.43203125,10.8846354 C2.55,10.9791667 2.70338542,11.0617188 2.80963542,11.0854167 L2.79765625,11.0854167 C4.74453125,12.1825521 10.0059896,10.6841146 9.99427083,10.6841146 L9.99427083,10.6841146 Z" id="Shape" fill="#FFFFFF"></path>
            </g>
        </g>
    </g>
</svg>