<?xml version="1.0" encoding="UTF-8"?>
<svg width="32px" height="32px" viewBox="0 0 32 32" version="1.1" xmlns="http://www.w3.org/2000/svg" xmlns:xlink="http://www.w3.org/1999/xlink">
    <!-- Generator: Sketch 47.1 (45422) - http://www.bohemiancoding.com/sketch -->
    <title>BAC</title>
    <desc>Created with Sketch.</desc>
    <defs></defs>
    <g id="Page-1" stroke="none" stroke-width="1" fill="none" fill-rule="evenodd">
        <g id="BAC">
            <circle id="Oval" fill="#0067B1" fill-rule="nonzero" cx="16" cy="16" r="16"></circle>
            <g id="logo" transform="translate(2.000000, 9.000000)" fill="#FFFFFF">
                <path d="M10.7865882,3.45607843 C11.6112157,3.78164706 12.4259608,4.13137255 13.2308235,4.50360784 C10.668,5.54454902 8.19247059,6.77654902 5.83113725,8.18752941 C5.03176471,7.76862745 4.22086275,7.37278431 3.39843137,7.00109804 C5.75647059,5.628 8.22596078,4.44047059 10.7865882,3.45607843" id="Shape"></path>
                <path d="M7.73513725,2.37835294 C5.0734902,3.22109804 2.51231373,4.32352941 0.0850980392,5.66094118 C0.859215686,5.94094118 1.62619608,6.23905882 2.38219608,6.55803922 C4.73419608,5.17396078 7.22015686,4.0094902 9.80658824,3.08384314 C9.1225098,2.83239216 8.4307451,2.59741176 7.73513725,2.37835294" id="Shape"></path>
                <path d="M16.3415686,3.35231373 C14.250902,2.34101961 12.0806275,1.4894902 9.84886275,0.809803922 C9.06376471,1.036 8.28580392,1.2825098 7.51443137,1.55098039 C9.81262745,2.23121569 12.0465882,3.09262745 14.1981961,4.12313725 C14.9053333,3.85192157 15.6207059,3.59388235 16.3415686,3.35231373" id="Shape"></path>
                <path d="M19.7526275,2.33552941 C17.6136471,1.40219608 15.401098,0.621490196 13.1407843,0 C12.4204706,0.148784314 11.705098,0.315137255 10.9946667,0.497411765 C13.2396078,1.15239216 15.4225098,1.98305882 17.528,2.97184314 C18.2642353,2.744 19.0059608,2.53152941 19.7526275,2.33552941" id="Shape"></path>
                <path d="M25.2296471,4.17529412 C19.8629804,5.98431373 14.8350588,8.56086275 10.2864314,11.7863529 C11.424,12.4847059 12.5313725,13.2258824 13.6140392,14.0065882 C17.9013333,10.6059608 22.6607843,7.77301961 27.7831373,5.62086275 C26.9475294,5.11411765 26.0932549,4.63262745 25.2296471,4.17529412" id="Shape"></path>
                <path d="M21.5391373,2.42172549 C15.959451,3.8974902 10.7135686,6.27858824 5.98431373,9.41458824 C7.04996078,9.93890196 8.09639216,10.4983529 9.12141176,11.0940392 C13.7562353,7.88556863 18.899451,5.38752941 24.3852549,3.73992157 C23.4497255,3.27105882 22.5004706,2.82964706 21.5391373,2.42172549" id="Shape"></path>
            </g>
        </g>
    </g>
</svg>