<?xml version="1.0" encoding="UTF-8"?>
<svg width="32px" height="32px" viewBox="0 0 32 32" version="1.1" xmlns="http://www.w3.org/2000/svg" xmlns:xlink="http://www.w3.org/1999/xlink">
    <!-- Generator: Sketch 47.1 (45422) - http://www.bohemiancoding.com/sketch -->
    <title>BRK.A</title>
    <desc>Created with Sketch.</desc>
    <defs></defs>
    <g id="Page-1" stroke="none" stroke-width="1" fill="none" fill-rule="evenodd">
        <g id="BRK.A">
            <circle id="Oval" fill="#452138" fill-rule="nonzero" cx="16" cy="16" r="16"></circle>
            <path d="M18.3451232,21.1845694 C17.6313801,21.1845694 17.0105652,20.9270191 16.5954709,20.4591818 L16.5742367,20.4342944 L16.9598771,19.9401997 L16.9909293,19.97696 C17.1548664,20.1662412 17.6144841,20.6071362 18.3645308,20.6071362 C19.1125226,20.6071362 19.3787492,20.2260622 19.3787492,19.8685057 C19.3787492,19.3684746 18.852689,19.2269133 18.2423771,19.0632044 C17.5325155,18.8714117 16.7269859,18.6547315 16.7269859,17.7608402 C16.7269859,17.0144467 17.3927808,16.4724038 18.3113311,16.4724038 C18.9663948,16.4724038 19.5246487,16.6950204 19.9246736,17.1153663 L19.9486477,17.1411669 L19.5611806,17.6140274 L19.5303568,17.5793221 C19.1433464,17.1461901 18.6275609,17.0553169 18.2640679,17.0553169 C17.7459991,17.0553169 17.3841044,17.3311331 17.3841044,17.7268199 C17.3841044,18.1366627 17.8695228,18.2684061 18.4312016,18.4211553 C19.1835316,18.6250493 20.0358677,18.8567989 20.0358677,19.8285489 C20.0358677,20.4838408 19.5913195,21.1845694 18.3451232,21.1845694 L18.3451232,21.1845694 Z M15.6648193,21.1039708 L15.02825,21.1039708 L15.02825,19.0492766 L12.6637192,19.0492766 L12.6637192,21.1039708 L12.0271499,21.1039708 L12.0271499,16.5466094 L12.6637192,16.5466094 L12.6637192,18.4732134 L15.02825,18.4732134 L15.02825,16.5466094 L15.6648193,16.5466094 L15.6648193,21.1039708 Z M20.0358677,15.6780621 L19.3990701,15.6780621 L19.3990701,13.6245096 L17.0347676,13.6245096 L17.0347676,15.6780621 L16.3984266,15.6780621 L16.3984266,11.1211574 L17.0347676,11.1211574 L17.0347676,13.0479897 L19.3990701,13.0479897 L19.3990701,11.1211574 L20.0358677,11.1211574 L20.0358677,15.6780621 Z M12.6637192,13.0610042 L13.7925566,13.0610042 C14.2441829,13.0610042 14.524109,12.8011707 14.524109,12.3824231 C14.524109,11.9659589 14.2373332,11.6969923 13.7925566,11.6969923 L12.6637192,11.6969923 L12.6637192,13.0610042 Z M12.6637192,15.1022272 L13.8254354,15.1022272 C14.3179318,15.1022272 14.6124707,14.8284659 14.6124707,14.3690765 C14.6124707,14.0051269 14.3688482,13.6372958 13.8254354,13.6372958 L12.6637192,13.6372958 L12.6637192,15.1022272 Z M13.9332046,15.6780621 L12.0271499,15.6780621 L12.0271499,11.1211574 L13.8859414,11.1211574 C14.6611038,11.1211574 15.1814559,11.5956162 15.1814559,12.3015962 C15.1814559,12.8406709 14.8542666,13.1911493 14.507213,13.3249476 C14.9387467,13.4687922 15.2682193,13.933433 15.2682193,14.4302676 C15.2682193,15.1885339 14.744899,15.6780621 13.9332046,15.6780621 L13.9332046,15.6780621 Z M23.2867551,21.3329805 L23.199535,21.115387 C23.3150674,21.0939245 23.4440708,21.0279386 23.5315192,20.8943687 C23.6061814,20.7804346 23.589742,20.6943562 23.5335741,20.6573676 C23.3657554,20.5484567 23.1203064,21.1788613 22.7577267,20.9427735 C22.5969861,20.8377442 22.5549744,20.611931 22.7033854,20.3847479 C22.8031633,20.2319987 22.9319385,20.1342757 23.0830894,20.0966021 L23.1614048,20.310999 C23.0390228,20.3420512 22.9374183,20.4244764 22.873259,20.522656 C22.8161778,20.6096478 22.821886,20.68294 22.8794238,20.7206136 C23.0317164,20.8197065 23.2899516,20.1993482 23.6500197,20.4349793 C23.8265147,20.5495984 23.8769745,20.7639953 23.7080142,21.0231438 C23.5865454,21.2090001 23.4372211,21.3017 23.2867551,21.3329805 L23.2867551,21.3329805 Z M22.4451502,22.547668 L21.6028603,21.7610893 L22.158831,21.1649335 L22.31706,21.3124312 L21.927538,21.7288955 L22.1044897,21.8946593 L22.485107,21.4857297 L22.6431077,21.6327708 L22.2624904,22.0414721 L22.4538265,22.2202503 L22.8433485,21.8035577 L23.0006642,21.9512838 L22.4451502,22.547668 Z M20.7046308,23.2239658 C20.4920605,22.9385599 20.5630695,22.5862549 20.841854,22.3787077 C21.0439214,22.2280134 21.2437055,22.2501609 21.3948565,22.3179733 L21.2884571,22.5266621 C21.1932457,22.4805405 21.0662972,22.4835087 20.9717708,22.5533761 C20.8028105,22.679183 20.7774664,22.8988314 20.9069265,23.0732715 C21.0368433,23.2481682 21.2548934,23.2862984 21.4243104,23.1600349 C21.5186085,23.0901675 21.556967,22.9686988 21.5402993,22.8645827 L21.769994,22.8207443 C21.7903149,22.9844532 21.7569795,23.1842373 21.5542271,23.3349316 C21.275671,23.5424788 20.9156029,23.5080017 20.7046308,23.2239658 L20.7046308,23.2239658 Z M20.2187558,24.1548457 L19.6748864,23.139714 L19.8906532,23.023725 L20.4349793,24.0386284 L20.2187558,24.1548457 Z M18.9371692,24.7005418 L18.1325529,23.7644104 L18.3937564,23.6705689 L18.9924238,24.3964132 L18.9967619,23.4557154 L19.2581937,23.3627872 L19.2271416,24.596654 L18.9371692,24.7005418 Z M17.564481,24.2539386 C17.5494115,24.1603255 17.4665297,24.1142039 17.3706333,24.12973 L17.1158229,24.1703718 L17.1635428,24.4770119 L17.4197231,24.4363701 C17.5158478,24.420844 17.5793221,24.3512049 17.564481,24.2539386 L17.564481,24.2539386 Z M17.6633456,25.0311559 L17.3751998,24.6624115 L17.1980198,24.6904955 L17.262179,25.0953152 L17.0206115,25.1336737 L16.838865,23.995475 L17.3715466,23.9103099 C17.608091,23.873093 17.7797912,24.0041514 17.8133549,24.2160367 C17.8453204,24.4155925 17.7352679,24.5457376 17.6167673,24.5939141 L17.9430434,24.986861 L17.6633456,25.0311559 Z M15.4052141,25.1635843 L15.4426594,24.0121427 L16.2577786,24.0386284 L16.2504722,24.2548519 L15.6805737,24.2363576 L15.6728107,24.4779252 L16.230608,24.4957345 L16.2230733,24.711273 L15.6657326,24.693692 L15.6579696,24.9558088 L16.2269548,24.9740748 L16.2203334,25.1902983 L15.4052141,25.1635843 Z M13.7713224,24.7510015 L13.9409677,24.588891 C14.0042136,24.6879839 14.1135812,24.7831953 14.2702119,24.8147041 C14.4033252,24.8407331 14.4779874,24.7943832 14.4914586,24.7277124 C14.5293605,24.5313531 13.8523777,24.5402578 13.9354879,24.1148888 C13.9731615,23.9267493 14.1660959,23.8029973 14.4325508,23.8550553 C14.6124707,23.8902173 14.7512921,23.9742408 14.8417087,24.0995911 L14.6729767,24.2530253 C14.5983145,24.1500509 14.4836955,24.0868049 14.3688482,24.0646574 C14.2663304,24.0441082 14.2010295,24.0769869 14.1873301,24.145256 C14.1517114,24.323121 14.825041,24.3304274 14.7410175,24.7525998 C14.7010607,24.959462 14.5206841,25.0854972 14.2176972,25.0256762 C13.9989622,24.9829794 13.8576292,24.8788634 13.7713224,24.7510015 L13.7713224,24.7510015 Z M12.3079893,24.4142226 L12.7267368,23.3404114 L13.4868298,23.6367769 L13.4087428,23.8381593 L12.8769745,23.6308404 L12.7890695,23.8559686 L13.3091932,24.058721 L13.2311061,24.259875 L12.7109824,24.0578077 L12.615771,24.3016585 L13.1461693,24.5092056 L13.0680823,24.7101314 L12.3079893,24.4142226 Z M11.3638666,23.9308591 L11.8138946,23.2324138 L11.0903336,23.7550491 L11.0006019,23.6975113 L11.1773253,22.8232559 L10.7277539,23.5219296 L10.5213484,23.3890446 L11.1446748,22.4198061 L11.4332773,22.6058908 L11.2800714,23.3634722 L11.9047678,22.909106 L12.1949686,23.0958756 L11.5720987,24.0646574 L11.3638666,23.9308591 Z M10.158997,22.3229965 C10.3117463,22.1707039 10.3302406,21.9588185 10.1802312,21.8078959 C10.0290803,21.6562883 9.81742325,21.6747826 9.66444569,21.8270752 C9.51260975,21.9784544 9.49297383,22.1910248 9.64389647,22.3424041 C9.79413413,22.4930984 10.0057911,22.4736908 10.158997,22.3229965 L10.158997,22.3229965 Z M9.48658073,21.6482969 C9.73294311,21.4028478 10.0882164,21.4069577 10.3336654,21.6544617 C10.5786579,21.900824 10.5816261,22.2563256 10.335492,22.5017747 C10.090043,22.7465388 9.7347697,22.742429 9.48932063,22.4960666 C9.24295826,22.2492476 9.24021836,21.893746 9.48658073,21.6482969 L9.48658073,21.6482969 Z M8.47327563,21.2544368 L8.87946531,20.9886668 L8.58081657,20.5333873 L8.17439857,20.7993856 L8.04014364,20.5941217 L9.0041306,19.9623472 L9.13884219,20.1685244 L8.7602798,20.4162567 L9.05824356,20.8713079 L9.43703427,20.6235756 L9.57288748,20.8304378 L8.60798721,21.4617556 L8.47327563,21.2544368 Z M24.0062063,15.7292069 L24.4781535,15.7191606 L25.1489715,15.2641094 L25.1544513,15.5435789 L24.6994001,15.8376611 L25.1658675,16.1132491 L25.171119,16.3913486 L24.482035,15.9643813 L24.0110011,15.973971 L24.0062063,15.7292069 Z M24.74575,14.2640472 L24.2244847,14.1834485 L24.2945804,14.5362102 L24.74575,14.2640472 Z M23.9187579,14.7528904 L24.0957096,14.6439795 L24.0004982,14.1594744 L23.7954626,14.126139 L23.740893,13.853976 L24.9567221,14.0651763 L25.0165432,14.3670216 L23.9719576,15.0259667 L23.9187579,14.7528904 Z M23.4287731,12.9959317 L24.0733337,12.4945306 L23.2678041,12.6269589 L23.1639164,12.387218 L24.0886315,11.6248417 L24.1984557,11.8766839 L23.5150798,12.3940677 L24.3665027,12.2630093 L24.4429915,12.439276 L23.7666937,12.9715009 L24.6114951,12.8244598 L24.7206343,13.0765303 L23.5317475,13.2354443 L23.4287731,12.9959317 Z M23.2324138,10.7891733 L22.7257613,10.9341595 L22.9355917,11.2250451 L23.2324138,10.7891733 Z M22.6848911,11.5791768 L22.8004234,11.406335 L22.5113643,11.0060817 L22.3106669,11.061108 L22.1476431,10.8359798 L23.3410964,10.52112 L23.5214729,10.7697657 L22.847915,11.8045333 L22.6848911,11.5791768 Z M21.6243228,10.2957635 L21.9533387,9.9379787 L21.5524005,9.56969093 L21.2233846,9.92793242 L21.0430081,9.76125537 L21.8229653,8.91325736 L22.0028852,9.07902111 L21.6971584,9.41214688 L22.0980966,9.78043465 L22.4038234,9.44708056 L22.5860265,9.61444258 L21.8065259,10.4628972 L21.6243228,10.2957635 Z M20.1212612,9.13541732 L20.6144426,8.34084729 L20.3290367,8.16275401 L20.4427424,7.97918094 L21.2233846,8.46459929 L21.1087656,8.64794404 L20.824273,8.47099238 L20.3308633,9.26556241 L20.1212612,9.13541732 Z M19.3495236,7.74103825 L18.9967619,8.13261515 L19.330116,8.26755506 L19.3495236,7.74103825 Z M19.3050003,8.70137202 L19.3102518,8.49268323 L18.8536023,8.30751188 L18.7122693,8.46140274 L18.4549474,8.3566017 L19.2990639,7.45586068 L19.5835565,7.57116466 L19.5630072,8.80594475 L19.3050003,8.70137202 Z M17.722025,8.17828009 L17.80993,7.70062478 L17.2745086,7.60313012 L17.1877452,8.08032879 L16.9459493,8.03557714 L17.1539531,6.90285821 L17.3955207,6.94738153 L17.3135521,7.39261473 L17.8480603,7.49056604 L17.9298005,7.04601781 L18.173423,7.08962783 L17.9654192,8.22280341 L17.722025,8.17828009 Z M14.6825664,8.09836644 L14.5489964,6.95331797 L15.3588642,6.85856321 L15.3837516,7.0736451 L14.8177346,7.13963094 L14.8455902,7.38005687 L15.3997343,7.31498433 L15.42485,7.52960956 L14.8709343,7.59468211 L14.9013015,7.85565726 L15.4677751,7.78875812 L15.4922058,8.00338336 L14.6825664,8.09836644 Z M13.631131,7.5382859 C13.6023621,7.44718434 13.5146854,7.41316396 13.4224422,7.44193287 L13.1751666,7.51819333 L13.2664965,7.81501546 L13.5137721,7.73852668 C13.6060153,7.71044274 13.6603566,7.63258401 13.631131,7.5382859 L13.631131,7.5382859 Z M13.8382216,8.2928991 L13.5018992,7.96844968 L13.3292858,8.02164933 L13.4505262,8.4120846 L13.2164933,8.48492019 L12.8760612,7.38462337 L13.3916184,7.22570936 C13.6208564,7.15470038 13.8087677,7.26064305 13.8720136,7.46545032 C13.931378,7.65861303 13.8409615,7.80268593 13.7304523,7.8670735 L14.1090147,8.20910393 L13.8382216,8.2928991 Z M12.4075389,8.84909812 L11.9056811,7.81296054 L12.1257862,7.7063329 L12.6278722,8.7426988 L12.4075389,8.84909812 Z M11.6326048,9.29159142 L11.3533636,8.89430641 L10.9088154,9.2073396 L11.1869149,9.60416796 L10.9871308,9.74481599 L10.3249891,8.80229155 L10.5256865,8.66118687 L10.7855201,9.03152957 L11.2307533,8.71895303 L10.9713764,8.34883866 L11.1727588,8.20704901 L11.8342155,9.1500301 L11.6326048,9.29159142 Z M9.73728128,10.4622123 C9.85464018,10.4622123 9.99414658,10.4222554 10.1046557,10.3076364 C10.1989539,10.2087718 10.1998672,10.1206385 10.150549,10.0745169 C10.0067044,9.93501048 9.64869128,10.5106171 9.33520144,10.2105984 C9.19752164,10.0777134 9.19752164,9.84779044 9.38520456,9.65188783 C9.51260975,9.52014447 9.65736762,9.44890715 9.81285676,9.43954584 L9.85030201,9.66490234 C9.72335347,9.67198041 9.60850613,9.73431305 9.52653756,9.81924985 C9.45461527,9.89368371 9.44662391,9.96697594 9.4963987,10.0153808 C9.62722876,10.1405027 9.99688648,9.57882392 10.3074081,9.87655935 C10.459244,10.0231438 10.4679204,10.2425639 10.2548934,10.4651805 C10.1000893,10.6261494 9.93615211,10.6889387 9.78248957,10.6921353 L9.73728128,10.4622123 Z M9.46329161,11.3839592 L8.88471677,11.4188928 L8.92604355,11.5540611 L9.22058244,11.7492787 L9.08564253,11.954086 L8.12462378,11.3179733 L8.25979202,11.1133944 L8.68835751,11.3967453 L8.48469187,10.7736472 L8.65182556,10.5213484 L8.85046807,11.2015277 L9.62996866,11.1312037 L9.46329161,11.3839592 Z M7.98488905,12.4006891 C7.89812566,12.3637005 7.81524379,12.4095938 7.77802686,12.4988688 L7.67733566,12.7376964 L7.96456815,12.8580235 L8.06434606,12.6191959 C8.10156299,12.5294643 8.07576229,12.4388194 7.98488905,12.4006891 L7.98488905,12.4006891 Z M8.69817548,12.7246819 L8.23307802,12.7755983 L8.16412396,12.9413621 L8.54085975,13.0993628 L8.44656164,13.3256326 L7.38393839,12.880856 L7.59171389,12.3840214 C7.68464205,12.1627748 7.8864811,12.0860577 8.08466696,12.1684829 C8.27029495,12.2463416 8.32280964,12.4089088 8.30203209,12.5347157 L8.80754302,12.4634784 L8.69817548,12.7246819 Z M8.09516989,14.7063121 L6.9683874,14.4652012 L7.13894597,13.668348 L7.34968969,13.7130996 L7.23073251,14.2708969 L7.46750524,14.3213567 L7.58463582,13.7761172 L7.79469456,13.8206406 L7.67824896,14.3670216 L7.93534259,14.4215912 L8.05475642,13.8640223 L8.26527181,13.9094589 L8.09516989,14.7063121 Z M7.66249455,15.5385557 C7.58988729,15.5360442 7.52938124,15.5865039 7.52755464,15.681487 L7.51956328,15.9990867 L7.78168005,16.0059364 L7.78967142,15.6881084 C7.79126969,15.5967785 7.7451481,15.540154 7.66249455,15.5385557 L7.66249455,15.5385557 Z M7.19397223,15.5488304 C7.12296324,15.5470038 7.07159018,15.5981485 7.06953526,15.6805737 L7.06154389,15.9874421 L7.30356809,15.9940636 L7.31133113,15.6867385 C7.31315773,15.6036283 7.26817776,15.550657 7.19397223,15.5488304 L7.19397223,15.5488304 Z M7.99151047,16.2561803 L6.84006891,16.2274114 L6.85559499,15.6212093 C6.86038981,15.4022459 7.00332109,15.2935633 7.1567553,15.2972165 C7.30014322,15.3008697 7.39626793,15.3933412 7.41658883,15.5029371 C7.43805135,15.3787284 7.5595201,15.284887 7.70245138,15.2885402 C7.87780476,15.2931067 8.01274467,15.4100089 8.00726488,15.6319406 L7.99151047,16.2561803 Z M7.72003238,18.6561015 C7.88990597,18.6561015 8.0278141,18.5181933 8.0278141,18.3480914 C8.0278141,18.1779895 7.88990597,18.0403097 7.72003238,18.0403097 C7.54993046,18.0403097 7.41202233,18.1779895 7.41202233,18.3480914 C7.41202233,18.5181933 7.54993046,18.6561015 7.72003238,18.6561015 L7.72003238,18.6561015 Z M24.2815659,18.6556448 C24.4509828,18.6556448 24.5893476,18.517965 24.5893476,18.3474064 C24.5893476,18.1779895 24.4509828,18.0400814 24.2815659,18.0400814 C24.110779,18.0400814 23.9730992,18.1779895 23.9730992,18.3474064 C23.9730992,18.517965 24.110779,18.6556448 24.2815659,18.6556448 L24.2815659,18.6556448 Z M16.0009133,26.4474542 C10.2393673,26.4474542 5.5523175,21.760861 5.5523175,15.999315 C5.5523175,10.239139 10.2393673,5.55208917 16.0009133,5.55208917 C21.7613176,5.55208917 26.4479108,10.239139 26.4479108,15.999315 C26.4479108,21.760861 21.7613176,26.4474542 16.0009133,26.4474542 L16.0009133,26.4474542 Z M16,5 C9.93455383,5 5,9.93409718 5,15.999315 C5,22.0656745 9.93455383,26.999315 16,26.999315 C22.0663595,26.999315 27,22.0656745 27,15.999315 C27,9.93409718 22.0663595,5 16,5 L16,5 Z" id="Fill-1" fill="#FFFFFF"></path>
        </g>
    </g>
</svg>