<?xml version="1.0" encoding="UTF-8"?>
<svg width="32px" height="32px" viewBox="0 0 32 32" version="1.1" xmlns="http://www.w3.org/2000/svg" xmlns:xlink="http://www.w3.org/1999/xlink">
    <!-- Generator: Sketch 47.1 (45422) - http://www.bohemiancoding.com/sketch -->
    <title>BUD</title>
    <desc>Created with Sketch.</desc>
    <defs></defs>
    <g id="Page-1" stroke="none" stroke-width="1" fill="none" fill-rule="evenodd">
        <g id="BUD" fill-rule="nonzero">
            <circle id="Oval" fill="#D2232A" cx="16" cy="16" r="16"></circle>
            <g id="Logo" transform="translate(2.000000, 13.300000)" fill="#FFFFFF">
                <path d="M21.4662997,3.55931839 L24.4391724,3.55931839 C24.4712857,2.37767245 23.7181923,1.51658749 22.6152645,1.51658749 C21.4080415,1.51658749 20.5887329,2.33333882 20.5887329,3.45701176 C20.5887329,4.58125251 21.4114518,5.44120012 22.8332354,5.44574687 C23.537165,5.44802068 23.9787908,5.2075995 24.3164041,4.99104941 L24.3169728,4.29848718 C24.3169728,4.29848718 23.5786561,4.70885189 22.8571074,4.6849808 C22.2245085,4.663667 21.4824981,4.4073309 21.4662997,3.55931839 M22.6064554,2.20687591 C23.1336208,2.20687591 23.583488,2.66128991 23.583488,2.93126712 L21.5075065,2.93126712 C21.5075065,2.62661932 21.9181555,2.20687591 22.6064554,2.20687591" id="path4439"></path>
                <path d="M11.7457079,0.0564386378 L11.7457079,0.0325666873 L10.3776348,0.0325666873 L10.3776348,0.0564386378 C10.5470097,0.157040124 10.5896373,0.445205201 10.599016,0.736211889 L10.599016,4.58068384 C10.5907746,4.88078489 10.5495678,5.1882743 10.3776348,5.28660285 L10.3776348,5.3104748 L11.7457079,5.3104748 L11.7457079,5.28660285 C11.5732062,5.18315889 11.532568,4.8751008 11.5243267,4.57670576 L11.5243267,0.77287195 C11.532568,0.471918762 11.5732062,0.160450402 11.7457079,0.0564386378" id="path4441"></path>
                <path d="M18.7477736,2.52658563 C19.281191,2.42030006 19.9416399,2.10797957 19.9416399,1.29179604 C19.9416399,0.525914551 19.3087575,0.0291564087 18.0350341,0.0291564087 L17.5453817,0.0325666873 L16.1773086,0.0325666873 L16.1773086,0.0564386378 C16.3466835,0.157040124 16.3887433,0.445205201 16.3986898,0.736496223 L16.3986898,4.58125251 C16.3898798,4.88106923 16.3492416,5.18855864 16.1773086,5.28660285 L16.1773086,5.3104748 L17.5453817,5.3104748 L17.5453817,5.30990613 L18.313537,5.30820099 C19.4863737,5.30820099 20.3406381,4.88249003 20.3406381,3.80371851 C20.3406381,2.74654601 19.2522045,2.53340619 18.7477736,2.52658563 L18.7477736,2.52658563 Z M17.3245683,0.783671455 C17.3257056,0.750705139 17.3274108,0.71773969 17.3291159,0.683922105 C17.4584204,0.676817214 17.576642,0.663460433 17.7076516,0.663460433 C18.6889467,0.663460433 18.99871,0.899334861 18.99871,1.38358836 C18.99871,2.06108867 18.2689199,2.21000186 17.5522022,2.21000186 C17.4817237,2.21000186 17.4660931,2.21000186 17.3245683,2.19806675 L17.3245683,0.783671455 L17.3245683,0.783671455 Z M18.1137539,4.62956421 C17.8113799,4.62956421 17.6141542,4.61535529 17.3245683,4.56874873 L17.3245683,2.91137412 C17.4294331,2.89886947 17.544813,2.89233325 17.6408677,2.89233325 C18.5701574,2.89233325 19.3519538,2.98554638 19.3519538,3.80400285 C19.3522381,4.29934019 19.0501476,4.62956421 18.1137539,4.62956421 L18.1137539,4.62956421 Z" id="path4443"></path>
                <path d="M27.0403299,1.60809548 L27.0391926,1.63253523 C27.1667928,1.73256892 27.0957456,2.01732372 26.9880393,2.30605746 L26.2332407,4.16804533 L25.1970977,1.60809548 L24.0603523,1.60809548 L24.0603523,1.63253523 C24.2706505,1.73313759 24.4289415,2.02130266 24.5559731,2.31287715 L25.4744633,4.58125251 C25.722558,5.15530885 26.4225086,5.3104748 26.4225086,5.3104748 L26.4637154,5.3104748 L27.9627981,1.60809548 L27.0403299,1.60809548 L27.0403299,1.60809548 Z" id="path4445"></path>
                <path d="M15.6998757,4.57642142 L15.7015808,2.84345375 C15.6916343,2.56495084 15.6521326,2.2784909 15.5040716,2.06762489 C15.2494406,1.69193077 14.7376206,1.51687183 14.2905958,1.51687183 C13.786165,1.51687183 13.5707522,1.54074378 13.1987518,1.86244211 L13.1947737,1.86812619 L13.1953415,1.61122142 L12.0435351,1.61122142 L12.0435351,1.63594551 C12.2123413,1.7359792 12.2549698,2.02385994 12.2643476,2.31515096 L12.2643476,4.58125251 C12.2555376,4.88106923 12.2154672,5.18855864 12.0435351,5.28717152 L12.0435351,5.3104748 L13.4107552,5.3104748 L13.4107552,5.28717152 C13.2396752,5.18315889 13.1987518,4.87566947 13.1910791,4.57670576 L13.1933529,2.87386105 C13.2206343,2.48679963 13.42809,2.11451579 13.9387728,2.11451579 C14.5705195,2.11451579 14.7657549,2.43848793 14.7737128,3.21715839 L14.7737128,4.58125251 C14.7654715,4.88106923 14.7248324,5.18855864 14.5528994,5.28717152 L14.5528994,5.3104748 L15.9206882,5.3104748 L15.9206882,5.28717152 C15.748756,5.18287455 15.7078327,4.87538514 15.6998757,4.57642142" id="path4447"></path>
                <path d="M8.10840731,2.52658563 C8.64296198,2.42030006 9.3034109,2.10797957 9.3034109,1.29179604 C9.3034109,0.525914551 8.67052768,0.0291564087 7.39623641,0.0291564087 L6.90658316,0.0325666873 L5.53879443,0.0325666873 L5.53879443,0.0564386378 C5.70816929,0.157040124 5.7496613,0.445205201 5.75847046,0.736496223 L5.75847046,2.24382031 C5.22391666,2.26030303 4.7334104,2.32566613 4.28752211,2.42569981 L3.31787864,0.0328510217 L2.11775963,0.0328510217 L2.11889697,0.0567229721 C2.24706502,0.157324458 2.17260842,0.445489536 2.06461684,0.736780557 L0.507275913,4.58153684 C0.376834923,4.88135356 0.212006811,5.18884297 3.46749226e-06,5.28688718 L3.46749226e-06,5.31075913 L1.13788533,5.31075913 C1.15465238,5.28063529 1.48658241,4.71737759 2.24422254,4.14275344 C2.62730588,3.85288322 3.11724347,3.56414947 3.73392743,3.34532644 L4.23523232,4.58153684 C4.34776978,4.88135356 4.43103641,5.18884297 4.29974241,5.28688718 L4.29917375,5.31075913 L5.45581214,5.31075913 L4.56716149,3.1148509 C4.93006749,3.04096297 5.32593895,2.9920826 5.7587548,2.97702068 L5.7587548,4.58153684 C5.75164991,4.88135356 5.70987443,5.18884297 5.53907876,5.28688718 L5.53907876,5.31075913 L6.90686749,5.31075913 L6.90686749,5.31019046 L7.67445498,5.30848533 C8.8489969,5.30848533 9.70212396,4.88277437 9.70212396,3.80400285 C9.70212396,2.74654601 8.61425895,2.53340619 8.10840731,2.52658563 L8.10840731,2.52658563 Z M1.86710762,3.50930155 L2.83390947,1.12327418 L3.4588348,2.66526885 C2.81458514,2.897733 2.28713536,3.20039133 1.86710762,3.50930155 L1.86710762,3.50930155 Z M6.68605498,0.783671455 C6.68662279,0.750705139 6.68776012,0.71773969 6.69060173,0.683922105 C6.81990625,0.676817214 6.93869647,0.663460433 7.06856966,0.663460433 C8.05043344,0.663460433 8.36019579,0.899334861 8.36019579,1.38358836 C8.36019579,2.0619408 7.62983703,2.21000186 6.91425672,2.21000186 C6.8437782,2.21000186 6.82757981,2.21000186 6.68605498,2.19806675 L6.68605498,0.783671455 Z M7.47523975,4.62956421 C7.17315009,4.62956421 6.97564087,4.61535529 6.68605498,4.56874873 L6.68605498,2.91137412 C6.79148755,2.89886947 6.90629882,2.89233325 7.00292223,2.89233325 C7.93249622,2.89233325 8.7140083,2.98554638 8.7140083,3.80400285 C8.7140083,4.29934019 8.4116343,4.62956421 7.47523975,4.62956421 L7.47523975,4.62956421 Z" id="path4451"></path>
            </g>
        </g>
    </g>
</svg>