<?xml version="1.0" encoding="UTF-8"?>
<svg width="32px" height="32px" viewBox="0 0 32 32" version="1.1" xmlns="http://www.w3.org/2000/svg" xmlns:xlink="http://www.w3.org/1999/xlink">
    <!-- Generator: Sketch 47.1 (45422) - http://www.bohemiancoding.com/sketch -->
    <title>CVX</title>
    <desc>Created with Sketch.</desc>
    <defs>
        <polygon id="path-1" points="9.99959308 4.03887526 0.0389432312 0.71902603 0.0389432312 7.36172483 10.0014913 10.6832885 19.965019 7.36068389 19.965019 0.71902603"></polygon>
        <polygon id="path-3" points="10.0024097 2.96383389 19.9645291 -0.356872579 19.9645291 -6.99834675 10.0024097 -3.6780689 0.0397392406 -6.99834675 0.0397392406 -0.356872579"></polygon>
    </defs>
    <g id="Page-1" stroke="none" stroke-width="1" fill="none" fill-rule="evenodd">
        <g id="CVX">
            <path d="M16,32 C24.836556,32 32,24.836556 32,16 C32,7.163444 24.836556,0 16,0 C7.163444,0 0,7.163444 0,16 C0,17.564393 0.224516107,19.0763474 0.643084313,20.5053992 C2.58882066,27.148422 8.72783695,32 16,32 Z" id="Oval" fill="#0094DD" fill-rule="nonzero"></path>
            <g id="logo" transform="translate(6.000000, 6.000000)">
                <g id="paths" transform="translate(0.000000, 11.592362)">
                    <mask id="mask-2" fill="white">
                        <use xlink:href="#path-1"></use>
                    </mask>
                    <use id="bottom" fill="#FFFFFF" xlink:href="#path-1"></use>
                    <mask id="mask-4" fill="white">
                        <use xlink:href="#path-3"></use>
                    </mask>
                    <use id="top" fill="#FFFFFF" xlink:href="#path-3"></use>
                </g>
                <g id="wordmark" fill-rule="nonzero" fill="#FFFFFF">
                    <path d="M2.88730994,3.80596607 C2.73625184,3.87968879 2.43119653,3.9704951 1.97875701,3.9704951 C0.72589938,3.9704951 0.006919159,3.10878426 0.006919159,2.00937276 C0.006919159,0.700549541 0.923064796,0.00796009443 2.06197061,0.00796009443 C2.50351093,0.00796009443 2.73680293,0.0924595584 2.88706502,0.172305429 L2.74788583,0.955027637 C2.58060138,0.880937527 2.40303004,0.813460419 2.09638271,0.813460419 C1.55399413,0.813460419 0.978662994,1.13602794 0.978662994,1.99492213 C0.978662994,2.76325493 1.43740936,3.16964837 2.10091385,3.16964837 C2.36371942,3.16964837 2.54208677,3.11809145 2.74794706,3.02361125 L2.88730994,3.80596607 Z" id="path79"></path>
                    <path d="M7.15079775,2.73680293 C7.18202581,3.09506841 7.47918226,3.28543713 7.93835725,3.28953964 C8.21506238,3.29168274 8.53677265,3.21122456 8.75108289,3.08496521 L8.87917918,3.74571428 C8.55661166,3.90773282 8.18812052,3.9704951 7.81301638,3.9704951 C6.80245177,3.9704951 6.26079796,3.36271128 6.26079796,2.43156392 C6.26079796,1.53084862 6.84323195,0.949639265 7.71602569,0.949639265 C8.61551636,0.949639265 9.01872576,1.61191912 9.01872576,2.44172835 C9.01872576,2.52916693 9.00794901,2.67159138 8.99827444,2.73680293 L7.15079775,2.73680293 L7.15079775,2.73680293 Z M8.170792,2.13263176 C8.170792,1.92456714 8.06927018,1.56072959 7.67622521,1.56072959 C7.33161436,1.56072959 7.16910597,1.85739619 7.14498076,2.13263176 L8.170792,2.13263176 Z" id="path81"></path>
                    <polygon id="polygon83" points="10.0166767 3.85262447 9.07861016 1.06781605 10.0152683 1.06781605 10.5248981 3.0376945 10.5420429 3.0376945 11.0517339 1.06781605 11.9887594 1.06781605 11.0507542 3.85262447"></polygon>
                    <path d="M12.2294605,1.98365553 C12.2294605,1.57395559 12.2166018,1.30668012 12.1991509,1.06775482 L12.9989567,1.06775482 L13.0232043,1.58540588 L13.0446966,1.58540588 C13.1846718,1.17570595 13.4532944,1.02005549 13.7295709,1.00438022 C13.8609124,0.996726285 13.9320022,1.00603347 14.0133176,1.02176997 L14.0133176,1.8360264 C13.9354924,1.82077975 13.7810666,1.80283892 13.6725031,1.81281966 C13.3457719,1.84288432 13.1480554,2.08052376 13.0925796,2.35410608 C13.0814355,2.41080644 13.0756797,2.47375242 13.0756797,2.54741391 L13.0756797,3.85256324 L12.2297666,3.85256324 L12.2297666,1.98365553 L12.2294605,1.98365553 Z" id="path85"></path>
                    <path d="M16.9968835,2.46003657 C16.9968835,3.37275324 16.4469634,3.97043387 15.5558615,3.97043387 C14.6645758,3.97043387 14.1142884,3.37275324 14.1142884,2.46003657 C14.1142884,1.54719743 14.6645758,0.949578034 15.5558615,0.949578034 C16.4469634,0.949578034 16.9968835,1.54725866 16.9968835,2.46003657 L16.9968835,2.46003657 Z M16.1166807,2.46003657 C16.1166807,2.00686227 15.9609078,1.61240897 15.5558615,1.61240897 C15.150264,1.61240897 14.9952871,2.00680104 14.9952871,2.46003657 C14.9952871,2.91363949 15.150264,3.30748047 15.5558615,3.30748047 C15.9610303,3.30748047 16.1166807,2.91363949 16.1166807,2.46003657 Z" id="path87"></path>
                    <path d="M17.3744369,1.95567274 C17.3744369,1.60812277 17.3617007,1.31139494 17.3437599,1.06781605 L18.1435657,1.06781605 L18.1618739,1.45743206 L18.1790187,1.45743206 C18.2897865,1.27624806 18.5829017,0.978601763 19.0402397,0.978601763 C19.5999568,0.978601763 19.9653252,1.36074753 19.9653252,2.18051479 L19.9653252,3.8526857 L19.1170852,3.8526857 L19.1170852,2.30848862 C19.1170852,1.9501619 18.9941324,1.70517469 18.6871789,1.70517469 C18.451805,1.70517469 18.3056455,1.87068342 18.2513944,2.02933423 C18.2313104,2.08744292 18.2231054,2.16637031 18.2231054,2.24609372 L18.2231054,3.85262447 L17.3744369,3.85262447 L17.3744369,1.95567274 L17.3744369,1.95567274 Z" id="path89"></path>
                    <path d="M4.96765001,0.978601763 C4.630142,0.978601763 4.30353321,1.13161927 4.13722846,1.37740249 L4.1270028,1.37740249 L4.1270028,0.0216759494 L3.27802812,0.315587128 L3.27802812,3.85262447 L4.1270028,3.85262447 L4.1270028,2.20041503 C4.1270028,1.96185712 4.28210218,1.70523592 4.57956479,1.70523592 C4.89778487,1.70523592 5.02037032,1.95573397 5.02037032,2.3201226 L5.02037032,3.8526857 L5.87007979,3.8526857 L5.87007979,2.20292552 C5.87007979,1.36074753 5.5088752,0.978601763 4.96765001,0.978601763 Z" id="path91"></path>
                </g>
            </g>
        </g>
    </g>
</svg>