<?xml version="1.0" encoding="UTF-8"?>
<svg width="32px" height="32px" viewBox="0 0 32 32" version="1.1" xmlns="http://www.w3.org/2000/svg" xmlns:xlink="http://www.w3.org/1999/xlink">
    <!-- Generator: Sketch 47.1 (45422) - http://www.bohemiancoding.com/sketch -->
    <title>JNJ</title>
    <desc>Created with Sketch.</desc>
    <defs></defs>
    <g id="Page-1" stroke="none" stroke-width="1" fill="none" fill-rule="evenodd">
        <g id="JNJ" fill-rule="nonzero">
            <circle id="Oval" fill="#D51900" cx="16" cy="16" r="16"></circle>
            <g id="wordmark" transform="translate(6.000000, 6.000000)" fill="#FFFFFF">
                <path d="M19.6259832,7.45279503 C19.1056105,7.78434783 18.4512006,8.40670807 17.773064,9.19428571 C17.6716975,8.30372671 17.5615112,7.37639752 17.4935609,6.31689441 C17.3382814,3.84024845 17.3288404,1.77267081 17.7389025,0.714534161 C17.9817596,0.0836024845 17.7488404,-0.0397515528 17.3288404,0.141863354 C15.5719459,0.89242236 12.9965422,3.07900621 12.9448652,6.59242236 C12.9273497,7.81900621 13.2166664,8.90807453 13.6812627,9.79453416 C13.058654,10.3380124 12.3031261,10.2554037 11.7176602,10.3674534 C11.4304553,9.40919255 11.1751758,8.29142857 10.1849894,7.74819876 C8.55604533,6.54136646 6.4538093,7.7515528 4.81977203,8.83801242 C4.73020682,8.05503106 4.63977203,7.23751553 4.58089005,6.31689441 C4.4253621,3.84024845 4.41505154,1.77267081 4.8253621,0.714534161 C5.06859191,0.0836024845 4.8359211,-0.0397515528 4.41505154,0.141863354 C2.65877825,0.892546584 0.0831260719,3.07913043 0.0318217241,6.59242236 C-0.0058180275,9.21925466 1.3495857,11.2254658 2.86834346,11.9268323 C2.82312607,12.0028571 2.77306396,12.0767702 2.72548632,12.1503106 C1.61194595,13.9968944 1.31207017,14.9741615 1.02374719,16.0754037 C0.605983215,17.6878261 0.73443042,19.4131677 1.7695857,19.6313043 C3.18474098,19.9320497 4.64089005,17.4313043 4.96238073,15.0212422 C5.22449253,13.0298137 5.11691489,11.5040994 4.94411986,9.91875776 C4.96312607,9.89403727 4.9895857,9.85987578 5.00772235,9.83826087 C5.15456193,9.65723373 5.29417444,9.47046211 5.42623166,9.27838509 C6.07815713,8.65888199 6.81666644,8.27950311 7.50225651,7.97217391 C8.30101427,7.78 9.13157328,7.94024845 9.73815713,8.45130435 C10.0251136,8.8026087 10.4407658,9.21714286 10.2803932,9.66447205 C9.64188384,9.50484472 9.13157328,9.08981366 8.42846769,9.12149068 C7.75766023,9.05763975 7.08722545,9.15416149 6.73604533,9.76086957 C6.51256707,10.2395031 6.89517576,10.6864596 7.21480309,11.0376398 C8.10933725,12.0598758 10.7914491,10.5273292 10.9512006,12.3475776 C11.398654,12.1873292 11.3666043,11.5485714 11.5582814,11.1331677 C12.3502068,10.8228571 13.0926913,10.711677 14.1320702,10.5198758 C14.605859,11.1640994 15.1802689,11.6490683 15.7813869,11.9269565 C15.7365422,12.0029814 15.686977,12.0768944 15.6387782,12.1504348 C14.5246168,13.9970186 14.2257348,14.9742857 13.9370391,16.075528 C13.5195236,17.6879503 13.6483435,19.4132919 14.6833745,19.6314286 C16.0976602,19.9321739 17.5540577,17.4314286 17.8757969,15.0213665 C18.1382814,13.0299379 18.030331,11.5042236 17.8574118,9.91888199 C17.8760453,9.89416149 17.9020081,9.86 17.9210143,9.83838509 C18.5584056,9.04782609 19.4402689,8.25440994 19.7431261,7.94037267 C19.9802689,7.68881988 20.0639956,7.1731677 19.6259832,7.45279503 L19.6259832,7.45279503 Z M4.016418,16.0669565 C3.7827534,18.4965217 2.66921303,18.7144099 2.18362297,18.5354037 C1.61182172,18.323354 1.456418,16.5653416 2.33828135,14.3365217 C2.75902669,13.271677 3.29057949,12.3190062 3.78213228,11.5485714 C3.98287762,13.2058385 4.13753601,14.8031056 4.016418,16.0669565 Z M4.30039315,1.02546584 C3.97865402,1.76012422 3.33604533,3.14732919 3.25703912,5.47291925 C3.20312607,7.00062112 3.44834346,8.86546584 3.67828135,10.7055901 C3.48610744,10.9768944 3.29915092,11.2575155 3.11306396,11.5417391 C2.03405775,10.7896894 1.49691489,9.19416149 1.42213228,6.73279503 C1.3048652,3.04807453 3.09915092,1.24360248 4.08685278,0.777018634 C4.32772235,0.662360248 4.45455464,0.676273292 4.30039315,1.02546584 Z M10.0251136,10.7504348 C9.5785298,10.9098137 8.81182172,10.8137888 8.36498943,10.527205 C8.23716334,10.3992547 7.88573477,10.143354 8.10946148,9.88795031 C8.84362297,9.47242236 9.48250495,9.91987578 10.0251136,10.527205 L10.0251136,10.7504348 Z M16.9294615,16.0669565 C16.6960453,18.4965217 15.5826292,18.7144099 15.0974118,18.5354037 C14.5246168,18.323354 14.3695857,16.5653416 15.2509522,14.3365217 C15.6728155,13.271677 16.2032503,12.3190062 16.6955484,11.5485714 C16.8960453,13.2058385 17.0510764,14.8031056 16.9294615,16.0669565 Z M17.213064,1.02546584 C16.8913248,1.76012422 16.2493373,3.14732919 16.1698341,5.47291925 C16.1166664,7.00062112 16.3612627,8.86546584 16.5916975,10.7055901 C16.3977564,10.9805521 16.2092723,11.259323 16.0263559,11.5417391 C14.9473497,10.7896894 14.4099584,9.19416149 14.3353,6.73279503 C14.2184056,3.04807453 16.0125671,1.24360248 17.0002689,0.777018634 C17.2412627,0.662360248 17.3677223,0.676273292 17.213064,1.02546584 L17.213064,1.02546584 Z" id="Shape"></path>
            </g>
        </g>
    </g>
</svg>