<?xml version="1.0" encoding="UTF-8"?>
<svg width="32px" height="32px" viewBox="0 0 32 32" version="1.1" xmlns="http://www.w3.org/2000/svg" xmlns:xlink="http://www.w3.org/1999/xlink">
    <!-- Generator: Sketch 47.1 (45422) - http://www.bohemiancoding.com/sketch -->
    <title>PG</title>
    <desc>Created with Sketch.</desc>
    <defs></defs>
    <g id="Page-1" stroke="none" stroke-width="1" fill="none" fill-rule="evenodd">
        <g id="PG" fill-rule="nonzero">
            <circle id="Oval" fill="#003CAE" cx="16" cy="16" r="16"></circle>
            <g id="logo" transform="translate(15.500000, 15.787375) scale(1, -1) translate(-15.500000, -15.787375) translate(4.500000, 11.000000)" fill="#FFFFFF">
                <g id="g52208" transform="translate(0.033031, 0.179811)">
                    <path d="M5.99143289,8.50160052 C6.43499465,8.50160052 7.66292148,8.44245895 6.86746737,6.12447909 C6.04244249,3.69265171 4.20350933,4.19128906 4.20350933,4.19128906 L5.55637272,8.50160052 L5.99143289,8.50160052 Z M9.28229156,5.97071101 C10.3165297,8.52119117 8.37372921,9.21906168 7.11364416,9.21906168 L2.94009757,9.21906168 C3.28607575,8.97842942 3.22841272,8.65943458 3.16372663,8.46981193 L0.728942163,0.686411833 C0.632837114,0.373700788 0.263941578,0.0576630296 0.0713618444,0.000739269611 L3.45315068,0.000739269611 C3.26204948,0.0380723849 2.99923914,0.303470175 3.09830127,0.661276667 L3.98135882,3.47715461 C3.98135882,3.47715461 8.04808094,2.92750766 9.28229156,5.97071101 L9.28229156,5.97071101 Z" id="path52210"></path>
                </g>
                <g id="g52212" transform="translate(6.906168, 0.045068)">
                    <path d="M3.77362405,1.33235982 C3.64018589,1.24993126 3.11197775,0.981576389 2.61777602,0.936480943 C2.15388434,0.895821114 1.392067,1.07065838 1.392067,1.98809196 C1.392067,2.78095862 2.2522072,3.34649987 2.70759728,3.55127756 C2.9138535,2.79056913 3.3248874,1.92488441 3.77362405,1.33235982 M5.10578789,6.28916256 C4.99304928,5.54471806 4.03680404,4.79546831 3.80134666,4.6997329 C3.75846903,5.11594169 3.77362405,5.77610945 4.11960223,6.31097101 C4.35875595,6.66619006 4.66148686,6.82069741 4.9061851,6.7345725 C5.10578789,6.66619006 5.12981416,6.48691718 5.10578789,6.28916256 M5.10578789,0.13548232 L7.38828282,0.13548232 C6.65973261,0.374636039 5.58187752,1.06289605 5.15014407,1.55081399 C5.5009275,1.92488441 5.92600753,2.40208295 6.00584864,3.37052614 L4.82412617,3.37052614 C4.82412617,3.37052614 5.05884427,3.24558957 5.05884427,2.96651529 C5.05884427,2.7074013 4.95423762,2.35550896 4.75463483,2.10489656 C4.41124409,2.6172104 4.03680404,3.2023423 3.90558368,4.06211286 C4.36836646,4.29202571 5.02372897,4.54042029 5.53530354,4.98952658 C6.03061418,5.42421711 6.14150462,5.8223138 6.14815804,6.09029903 L6.14815804,6.1250447 C6.14815804,6.40227081 6.04539957,6.65584029 5.83914335,6.85655198 C5.5009275,7.19587674 4.95941251,7.3293149 4.39461053,7.23099204 C3.93404556,7.14227969 3.55221281,6.90201707 3.36480796,6.72422272 C2.66545891,6.08179743 2.57859473,5.01318321 2.57859473,4.5330276 C2.57859473,4.4258335 2.58672669,4.32898919 2.5889445,4.27797958 C2.55604701,4.26762981 2.47657552,4.23399304 2.47657552,4.23399304 C1.98237379,4.05213272 0.642817253,3.69395659 0.162661641,2.59244487 C0.102411168,2.4567889 0.0148077192,2.14999201 0.0148077192,1.79551223 C0.0148077192,1.49758658 0.0746885577,1.16084927 0.269116465,0.848138224 C0.612507199,0.322147896 1.17989663,-0.00497890636 2.09917839,0.00869758143 C3.09534419,0.0212651648 4.08005131,0.704350285 4.24971368,0.82854758 C4.42529022,0.664429726 4.87846249,0.247112031 5.10578789,0.13548232" id="path52214"></path>
                </g>
                <g id="g52216" transform="translate(13.307356, 0.022422)">
                    <path d="M5.62179808,8.65196622 C6.97724891,8.97539668 8.09391566,7.91380552 8.19815267,7.84838016 L8.57776762,9.07150173 C8.04586313,9.23303214 4.16728512,10.548932 1.4249645,7.41664671 C-0.259830941,5.48937083 -0.682693158,1.54647636 1.46229762,0.490429723 C3.75255487,-0.643609859 6.28492292,0.662679542 6.46271726,0.751391896 L7.51506755,4.07477843 C7.62632763,4.48396416 7.87804893,4.74640487 8.33085157,4.91126199 L4.69992888,4.91126199 C5.22702811,4.6872633 5.1919128,4.29027552 5.14533882,4.12726657 L4.10296867,0.796487342 C3.96250744,0.772830714 1.04091394,0.0439108784 2.67617832,5.15632987 C3.0232654,6.24933999 4.01684376,8.2597837 5.62179808,8.65196622" id="path52218"></path>
                </g>
            </g>
        </g>
    </g>
</svg>