<?xml version="1.0" encoding="UTF-8"?>
<svg width="32px" height="32px" viewBox="0 0 32 32" version="1.1" xmlns="http://www.w3.org/2000/svg" xmlns:xlink="http://www.w3.org/1999/xlink">
    <!-- Generator: Sketch 47.1 (45422) - http://www.bohemiancoding.com/sketch -->
    <title>RDS.A</title>
    <desc>Created with Sketch.</desc>
    <defs></defs>
    <g id="Page-1" stroke="none" stroke-width="1" fill="none" fill-rule="evenodd">
        <g id="RDS.A" fill-rule="nonzero">
            <circle id="Oval" fill="#EC1B23" cx="16" cy="16" r="16"></circle>
            <path d="M15.8365598,25.490781 C15.5616806,25.4484627 15.2898565,25.3135815 15.0214365,25.0863105 L14.8612863,24.9507114 L12.0402896,24.9507114 C9.80686636,24.9507114 9.21686791,24.9440076 9.20765088,24.9185263 C9.20124785,24.9008245 9.16706935,24.6198487 9.13169845,24.2941356 C9.0963273,23.9684226 9.05605218,23.609237 9.04219791,23.4959455 C9.02834365,23.382654 8.99857554,23.1219548 8.97604675,22.916614 C8.95351822,22.7112732 8.91846686,22.3984341 8.89815498,22.2214162 C8.8778431,22.0443982 8.83755407,21.6794193 8.80862354,21.410352 C8.77969327,21.1412847 8.74966021,20.8894184 8.74188326,20.8506493 C8.73010893,20.7919522 8.44055413,20.5754995 7.01103606,19.556779 C6.06684668,18.8839196 5.26246801,18.3073416 5.22352741,18.2754948 C5.15654329,18.220713 5.14998397,18.1953836 5.10185053,17.8056225 C4.71132521,14.6433395 5.44031456,11.8836409 7.34974417,9.29588592 C7.8208298,8.65744712 8.21902908,8.20480844 8.6575949,7.80923392 C9.9235633,6.66736523 11.3336624,5.88714521 12.9801268,5.41753963 C14.3940835,5.01424996 15.9263196,4.90000964 17.3959205,5.08830707 C19.5090405,5.35905753 21.4737445,6.22497279 23.1377397,7.61893175 C23.5803631,7.98972556 24.2224108,8.64643931 24.5032602,9.01564472 C26.4339206,11.5536951 27.2485272,14.468775 26.9343992,17.7155042 C26.9200125,17.8641993 26.9015825,18.0206188 26.8934435,18.0631031 C26.8807881,18.1291632 26.7482051,18.2372765 25.977748,18.8097971 C25.4822545,19.1779945 24.6870249,19.7702209 24.210571,20.1258561 L23.3442915,20.7724652 L23.3141873,21.0399125 C23.2855264,21.2945357 23.2650204,21.4829114 23.1126981,22.8908659 C22.9634348,24.2705484 22.8940249,24.8811581 22.8854851,24.889698 C22.880509,24.8946738 21.6221795,24.9065609 20.0891972,24.916114 L17.3019568,24.9334828 L17.1346494,25.0706217 C16.7225104,25.4084451 16.2645589,25.5566726 15.8365598,25.490781 Z M16.4720139,23.5864963 C16.5862104,23.5302775 16.717378,23.4321915 16.8548416,23.3002211 L17.0639524,23.0994662 L19.1541742,23.0811738 C21.0329,23.0647321 21.2455826,23.0587379 21.2561254,23.0219326 C21.2625769,22.999411 21.2749625,22.8998778 21.2836488,22.8007477 C21.2923355,22.7016176 21.3159372,22.4640917 21.3360974,22.2729123 C21.3562576,22.0817329 21.3909436,21.7457206 21.4131776,21.5262183 C21.4354116,21.306716 21.4696261,20.9764971 21.4892098,20.7923984 C21.5087936,20.6082997 21.5389718,20.3124379 21.5562727,20.1349274 L21.5877291,19.8121815 L23.2707362,18.5771692 C24.19639,17.8979128 24.971082,17.3291977 24.9922734,17.3133583 C25.0562246,17.2655585 25.1342346,16.7663738 25.1507355,16.2993605 C25.1680328,15.8098078 25.1369222,15.460731 25.0412982,15.0714233 C24.9659985,14.7648601 24.7991433,14.3296333 24.7569144,14.3296333 C24.7411283,14.3296333 23.744678,15.3248419 22.5425806,16.5412082 C21.3404828,17.7575742 20.08622,19.0263103 19.7553298,19.3606217 C19.2943039,19.826414 19.1508761,19.9575108 19.1415795,19.9216059 C19.1252115,19.8583905 19.1792337,19.7820617 19.7371243,19.0801518 C20.0016348,18.7473581 20.4926234,18.1287373 20.8282098,17.7054393 C21.1637965,17.2821411 21.6189827,16.7086028 21.839735,16.4309099 C23.7512966,14.0262811 24.5508109,13.0103102 24.5603905,12.9736779 C24.5741363,12.9211135 24.4576099,12.5084278 24.3690638,12.296083 C24.2695382,12.0574082 24.0634129,11.7097398 23.8569826,11.4323635 C23.6708411,11.1822489 23.1914749,10.6617048 23.1699199,10.6862816 C23.1637097,10.6933623 22.9812499,11.0119947 22.7644537,11.3943535 C22.5476576,11.7767123 22.2255809,12.3444572 22.048728,12.6560088 C21.871875,12.9675604 21.6318428,13.3904725 21.515323,13.5958133 C21.3988032,13.8011542 21.0896274,14.3457258 20.8282654,14.8059725 C20.5669037,15.2662192 20.0998559,16.08887 19.7903814,16.6340854 C19.4809071,17.1793007 19.0204827,17.9903649 18.7672162,18.4364501 C18.5139495,18.8825354 18.2913737,19.2631884 18.2726033,19.2823458 C18.2521287,19.3032419 18.2167238,19.3102737 18.1841077,19.2999216 C18.076145,19.2656556 18.1163535,19.1474872 18.5567667,18.2047175 C18.7916167,17.7019865 19.0104121,17.2327279 19.0429791,17.1619208 C19.0755463,17.0911136 19.3048802,16.5986818 19.5526103,16.0676279 C19.8003407,15.536574 20.1620823,14.7602697 20.356481,14.3425073 C20.5508797,13.9247449 21.1026667,12.7405145 21.5826745,11.710884 C22.0626821,10.6812538 22.4554159,9.81780107 22.4554159,9.79210037 C22.4554159,9.71497049 22.2684674,9.45481149 22.0661499,9.25039398 C21.8342118,9.01604896 21.4576463,8.72884703 21.1277757,8.53470788 C20.837225,8.36370955 20.2679305,8.07604364 20.2518658,8.09210837 C20.2410825,8.10289141 20.1915816,8.27471367 19.8160491,9.60486274 C19.3775711,11.1579661 19.2969984,11.4430021 19.0954933,12.1539215 C18.9770813,12.5716839 18.8032151,13.1857753 18.7091237,13.5185691 C18.6150323,13.8513629 18.4642876,14.3843479 18.3741357,14.7029802 C17.7832358,16.7914498 17.4484061,17.9777995 17.3422198,18.3592059 C17.2298514,18.7628172 17.2152342,18.7969231 17.1546206,18.7969231 C17.0761411,18.7969231 17.0706096,18.7325985 17.1250933,18.4535559 C17.1531983,18.3096141 17.194741,18.0933571 17.2174107,17.9729849 C17.2400803,17.8526127 17.2745073,17.6730199 17.2939149,17.5738898 C17.3133225,17.4747598 17.3584408,17.2372339 17.3941781,17.0460544 C17.4299151,16.854875 17.5180173,16.3856165 17.5899605,16.0032577 C17.6619037,15.6208989 17.7369632,15.2211601 17.7567593,15.1149493 C17.849587,14.6169047 17.8837902,14.4351071 18.0910109,13.3383326 C18.2127514,12.6939872 18.3230839,12.1088624 18.3361946,12.0380552 C18.3710351,11.8498911 18.4133901,11.6246548 18.6581768,10.3258086 C18.7796132,9.68146324 18.8963142,9.0615785 18.9175123,8.948287 C18.9387107,8.8349955 18.9713315,8.66119604 18.9900032,8.56206598 C19.0086747,8.46293591 19.0568488,8.20498224 19.0970567,7.98883545 L19.1701617,7.59584139 L19.1097356,7.55111829 C18.7083628,7.25405186 18.2181359,7.0941804 17.5065597,7.02829506 C17.2091496,7.00075763 16.5503575,7.00270169 16.5248847,7.0311919 C16.5191125,7.03764784 16.5008841,7.44266871 16.4843773,7.93123831 C16.4678702,8.4198079 16.4433599,9.12659237 16.4299099,9.50187047 C16.3966506,10.4298628 16.3841445,10.7950342 16.3531932,11.7419524 C16.3386124,12.1880377 16.3149478,12.8542689 16.3006051,13.2224663 C16.2862627,13.5906637 16.2635784,14.256895 16.2501953,14.7029802 C16.2368125,15.1490655 16.2132257,15.8500567 16.1977799,16.2607384 C16.1823345,16.6714201 16.1546967,17.4329483 16.1363628,17.9530232 C16.1026882,18.9082706 16.0937536,18.9771596 16.0035388,18.9771596 C15.955392,18.9771596 15.9475718,18.8999063 15.9162217,18.1145993 C15.8902262,17.4634214 15.8698386,16.9871614 15.7740365,14.7930985 C15.7530127,14.3116096 15.72973,13.7612446 15.7222971,13.5700652 C15.7148644,13.3788858 15.69752,12.9907337 15.6837543,12.707505 C15.6699883,12.4242762 15.6467574,11.8912912 15.6321297,11.5230938 C15.6175019,11.1548964 15.5998727,10.7377777 15.592954,10.5961634 C15.5860349,10.454549 15.5690448,10.0721902 15.555198,9.74647711 C15.5413512,9.42076405 15.5122755,8.74873947 15.4905853,8.25308916 C15.4688949,7.75743885 15.4484301,7.27080036 15.4451078,7.17167029 L15.4390673,6.99143382 L15.2330827,6.97073636 C14.7567067,6.9228698 14.0845111,6.99880873 13.6505081,7.14952214 C13.4232588,7.22843765 13.068017,7.40891132 12.9017533,7.52991254 L12.7847579,7.61505795 L13.2272972,9.8265567 C13.4706939,11.0428808 13.9723239,13.547754 14.3420304,15.3929412 C14.7117369,17.2381286 15.0142242,18.7824107 15.0142242,18.8246795 C15.0142242,18.9222806 14.9500857,18.9502127 14.8820943,18.8822215 C14.8360728,18.8362 14.4222609,17.4221547 13.4706885,14.0592785 C13.3685055,13.6981619 13.2522434,13.2926298 13.2123283,13.1580962 C13.1724128,13.0235625 12.8356031,11.8453829 12.463862,10.5399195 C12.0921207,9.23445592 11.7804542,8.15419057 11.7712694,8.1393293 C11.7335771,8.07834165 11.0225519,8.39465358 10.6586696,8.63428879 C10.2516869,8.9023079 9.86548312,9.27760299 9.59129967,9.67151007 L9.48535126,9.82372132 L10.7554659,12.4757723 C11.4540287,13.9344004 12.1064147,15.2958295 12.2052124,15.5011704 C12.3040101,15.7065112 12.4679586,16.0483168 12.5695424,16.2607384 C12.6711263,16.4731599 12.8209296,16.785999 12.9024387,16.9559362 C12.9839478,17.1258735 13.1724769,17.5198189 13.3213922,17.8313705 C13.4703077,18.1429222 13.6747978,18.5705963 13.7758147,18.7817575 C13.8768316,18.9929189 13.9621694,19.2010287 13.9654546,19.2442242 C13.9736801,19.3523805 13.8996045,19.3644103 13.8134123,19.2689156 C13.7772244,19.228822 13.4634257,18.7093797 13.116082,18.1145993 C12.7687382,17.5198189 12.0239342,16.2452895 11.4609617,15.2823118 C10.8979892,14.319334 10.0754195,12.9115584 9.63302931,12.1539215 C9.19063887,11.3962846 8.81991123,10.7668561 8.80918974,10.7551914 C8.76932195,10.7118167 8.27015342,11.2969622 8.01943546,11.680973 C7.74506353,12.1012134 7.54973998,12.5977129 7.50900988,12.9784421 L7.49104314,13.1463867 L9.33927706,15.4116345 C10.3558056,16.6575207 11.5972189,18.1794236 12.0979732,18.793641 C12.6267796,19.4422665 13.0051083,19.9279654 13.0004981,19.9523041 C12.9961323,19.9753514 12.9636931,19.9975949 12.9284105,20.0017339 C12.8562762,20.0101963 12.646276,19.8025069 10.0439783,17.1490467 C7.95333374,15.017299 7.21703631,14.2779515 7.20084825,14.2941395 C7.14734788,14.3476399 6.96395829,14.9954955 6.88832618,15.3981781 C6.81801567,15.7725274 6.82435304,16.6046133 6.90028873,16.9688102 C6.94077087,17.1629684 6.9727631,17.2550101 7.0138014,17.2953854 C7.06591936,17.3466616 7.50791636,17.6851864 9.72580629,19.3725065 L10.4753102,19.9427121 L10.5053069,20.2001928 C10.521805,20.3418072 10.5529923,20.614093 10.574612,20.8052724 C10.5962318,20.9964518 10.6301189,21.2861176 10.6499166,21.4489741 C10.6697145,21.6118306 10.7162189,22.023156 10.7532598,22.3630305 C10.790301,22.702905 10.8258745,23.0070541 10.8323125,23.0389173 L10.8440181,23.0968505 L12.9582813,23.0968505 L15.0725446,23.0968505 L15.2231878,23.2612509 C15.50262,23.5662017 15.7746133,23.6964236 16.1004149,23.6812392 C16.2608674,23.6737612 16.331156,23.6558405 16.4720139,23.5864963 Z" id="Logo" fill="#FFFFFF"></path>
        </g>
    </g>
</svg>