<?xml version="1.0" encoding="UTF-8"?>
<svg width="32px" height="32px" viewBox="0 0 32 32" version="1.1" xmlns="http://www.w3.org/2000/svg" xmlns:xlink="http://www.w3.org/1999/xlink">
    <!-- Generator: Sketch 47.1 (45422) - http://www.bohemiancoding.com/sketch -->
    <title>T</title>
    <desc>Created with Sketch.</desc>
    <defs></defs>
    <g id="Page-1" stroke="none" stroke-width="1" fill="none" fill-rule="evenodd">
        <g id="T" fill-rule="nonzero">
            <circle id="Oval" fill="#00A8E0" cx="16" cy="16" r="16"></circle>
            <path d="M9.25439467,24.6791231 C11.1192198,26.1226654 13.4598938,26.9899998 15.9994133,26.9899998 C18.778489,26.9899998 21.3120169,25.958218 23.2455847,24.2645273 C23.269016,24.2438243 23.2574608,24.2301293 23.2343504,24.2438243 C22.3666951,24.8232955 19.8937784,26.0882138 15.9995203,26.0882138 C12.6152418,26.0882138 10.476516,25.3331145 9.26873166,24.658955 C9.24562129,24.6475604 9.2370619,24.6648931 9.25439467,24.6791231 M16.7460602,25.2411545 C19.4528624,25.2411545 22.4273063,24.503281 24.20627,23.0426735 C24.6930856,22.644715 25.156791,22.1150488 25.5720822,21.403228 C25.8111568,20.9936609 26.0449889,20.5070592 26.2354354,20.0287494 C26.2438879,20.005425 26.2294974,19.9940838 26.2119506,20.020297 C24.5576332,22.4548034 19.7670993,23.9732939 14.8206239,23.9732939 C11.3242708,23.9732939 7.56225543,22.8552227 6.08939723,20.7203486 C6.07489975,20.7006085 6.06040227,20.7090609 6.06922915,20.7317433 C7.44130045,23.6480368 11.6038421,25.2411545 16.7460602,25.2411545 M13.7886281,20.4031695 C8.15900587,20.4031695 5.50452294,17.7812123 5.02300338,15.9919239 C5.0170653,15.9660317 5,15.9717023 5,15.9949731 C5,16.5973407 5.06029025,17.3746944 5.16401944,17.8906655 C5.21350345,18.1418303 5.41791255,18.5359906 5.71759843,18.8501739 C7.08078936,20.2710873 10.4794048,22.26211 16.365274,22.26211 C24.3845194,22.26211 26.2181027,19.5908292 26.5925228,18.7123676 C26.8602714,18.0841079 26.9989871,16.9487574 26.9989871,15.9950266 C26.9989871,15.7642439 26.9932095,15.5798959 26.9844897,15.3989181 C26.9844897,15.3695487 26.9674779,15.3671414 26.9615933,15.3957619 C26.560853,17.5452939 19.7093234,20.4031695 13.7886281,20.4031695 M6.06040227,11.2781036 C5.73782,11.9182929 5.3802512,12.9983283 5.27395419,13.5573104 C5.22735898,13.7968131 5.24720608,13.9118299 5.33119516,14.0905608 C6.00594311,15.5221735 9.41894908,17.812775 17.380151,17.812775 C22.2370737,17.812775 26.0100558,16.6195416 26.6213038,14.4420846 C26.7338598,14.0412373 26.7399049,13.6180287 26.5953046,13.0477588 C26.433746,12.4105117 26.1311713,11.6673956 25.8750848,11.1455934 C25.8666324,11.1285816 25.851707,11.1310959 25.8547563,11.1512105 C25.9498726,14.0071602 17.9855144,15.847805 13.9670381,15.847805 C9.61431731,15.847805 5.98293973,14.1135642 5.98293973,11.9237496 C5.98293973,11.7133489 6.02648566,11.5028947 6.08083783,11.2838811 C6.08629444,11.2638736 6.06917565,11.2605568 6.06040227,11.2781036 M23.2633989,7.77158617 C23.3096196,7.84402007 23.3326765,7.92132212 23.3326765,8.02537229 C23.3326765,9.24701219 19.5937715,11.4081529 13.6419415,11.4081529 C9.26873166,11.4081529 8.44997187,9.78582622 8.44997187,8.75409793 C8.44997187,8.38529492 8.5914159,8.00793252 8.90292444,7.62468553 C8.91993625,7.60189613 8.90549226,7.59312275 8.88585915,7.61008106 C8.31772919,8.09154713 7.79571297,8.63330345 7.33778525,9.21812423 C7.11898567,9.49469974 6.98315874,9.73971247 6.98315874,9.88650613 C6.98315874,12.0245899 12.3443369,13.5748037 17.3572011,13.5748037 C22.6984787,13.5748037 25.0822707,11.8311476 25.0822707,10.2988016 C25.0822707,9.75116067 24.8690882,9.4314672 24.3237477,8.81165988 C23.9697631,8.40845879 23.6349302,8.08015243 23.2805177,7.7569817 C23.2633989,7.7428587 23.2514692,7.75436039 23.2633989,7.77158617 M21.6259328,6.55021375 C19.9775,5.56213838 18.0632444,5 15.9995203,5 C13.9214058,5 11.9494812,5.5817715 10.2951103,6.59600652 C9.7988793,6.9014165 9.51957549,7.14616175 9.51957549,7.46077308 C9.51957549,8.38818372 11.6869752,9.38535345 15.5322307,9.38535345 C19.3375781,9.38535345 22.2890721,8.29312092 22.2890721,7.24175951 C22.2890721,6.9908087 22.0697375,6.81523407 21.6259328,6.55021375" id="path9" fill="#FFFFFF"></path>
        </g>
    </g>
</svg>