<?xml version="1.0" encoding="UTF-8"?>
<svg width="32px" height="32px" viewBox="0 0 32 32" version="1.1" xmlns="http://www.w3.org/2000/svg" xmlns:xlink="http://www.w3.org/1999/xlink">
    <!-- Generator: Sketch 47.1 (45422) - http://www.bohemiancoding.com/sketch -->
    <title>TCEHY</title>
    <desc>Created with Sketch.</desc>
    <defs></defs>
    <g id="Page-1" stroke="none" stroke-width="1" fill="none" fill-rule="evenodd">
        <g id="TCEHY" fill-rule="nonzero">
            <circle id="Oval" fill="#006CB6" cx="16" cy="16" r="16"></circle>
            <g id="tencent" transform="translate(3.000000, 11.000000)" fill="#FFFFFF">
                <path d="M0.159719313,3.61177076e-05 L0,0.646362495 L1.47993569,0.646362495 L0.936945717,2.90028804 L0.537664838,4.56311118 L1.50656138,4.56311118 L1.90580745,2.90028804 L2.44879743,0.646362495 L3.92340798,0.646362495 L4.07780216,0 L0.159719313,0 L0.159719313,3.61177076e-05 Z M11.1434936,8.2047874 L10.7815235,8.2047874 L10.8986069,8.12742327 C11.1004748,7.99151234 11.1999122,7.92169681 11.2020701,7.91198115 C11.0943144,7.65941002 11.0031605,7.48506984 10.9199422,7.39820676 C10.9176103,7.38249555 10.7638774,7.47997725 10.4674448,7.67996099 L10.366302,7.74623699 C10.3684599,7.75111288 10.380572,7.76985797 10.4035431,7.80146096 C10.507888,7.94221167 10.5960486,8.07479977 10.6644052,8.20475128 L10.366302,8.20475128 L10.2704843,8.66882771 L10.941208,8.66882771 L10.8933165,8.76276987 L10.8453903,8.85667591 L10.1213805,8.85667591 L10.0308879,9.32075233 L10.5312768,9.32075233 C10.3176796,9.59120173 10.0636393,9.80841362 9.77002582,9.97264084 L10.2384987,7.65240318 L8.94487318,7.65240318 L8.46045972,10.0499688 C8.44744272,10.1127053 8.43275508,10.1724079 8.41782382,10.2322549 C8.30519542,10.6961146 8.13761022,11.1121906 7.9121098,11.4807718 C8.04885793,11.6060642 8.16019855,11.7403859 8.25281417,11.884026 C8.5238741,11.4827583 8.73684478,10.9689839 8.89698175,10.337213 L9.17910961,10.337213 L9.0193903,11.1216896 C9.00682576,11.2291036 8.90161079,11.2774653 8.71063675,11.2598037 C8.75045347,11.4518054 8.76750783,11.6440961 8.75323785,11.8453801 C9.21426248,11.842274 9.4470023,11.7344626 9.45591233,11.5139279 L9.71677445,10.2322549 L9.73271506,10.1438749 C9.76035335,10.1723315 9.78699626,10.2018105 9.81259212,10.2322549 C9.87475352,10.3082827 9.92309741,10.3830102 9.95633602,10.4587491 C10.0269898,10.422523 10.1109042,10.3668295 10.2065131,10.2819529 L10.0361435,10.8564773 L11.5853059,10.8564773 L11.5586455,11.0056434 C11.4973194,11.3158945 11.4111078,11.4666137 11.3031085,11.4475797 L11.3882759,11.0056434 L9.72735511,11.0056434 L9.63150264,11.4641577 L10.9837047,11.4641577 C11.0610062,11.6371615 11.0940011,11.8143911 11.0795223,12 C11.5109628,11.9854446 11.775201,11.9164959 11.8780493,11.7900839 C11.9102089,11.7532077 11.9440392,11.6891349 11.9791921,11.5801678 C12.0496718,11.3611861 12.1322637,11.0409665 12.2347291,10.6189311 L12.2932708,10.375895 L11.71833,10.375895 L11.7502808,10.2322188 L11.7928819,10.0112868 C11.8951036,10.1040732 11.985805,10.1763447 12.0643943,10.2322188 C12.1225183,10.2735736 12.1738554,10.3051766 12.2187884,10.326161 C12.2434651,10.2941246 12.2688378,10.2625216 12.2933056,10.2322188 C12.4415393,10.0455264 12.58229,9.88993129 12.713887,9.7626886 C12.3667785,9.66015043 12.1125641,9.51297077 11.9526012,9.32075233 L12.713887,9.32075233 L12.8043795,8.85667591 L11.4362369,8.85667591 C11.4728864,8.8009824 11.5069255,8.74113536 11.5320546,8.66886383 L12.6606704,8.66886383 L12.7511629,8.20482352 L12.3465917,8.20482352 C12.5233306,8.02560745 12.6787689,7.87821109 12.8203549,7.76288725 L12.3465917,7.45902898 C12.1947731,7.66009625 12.0310164,7.85589035 11.8514932,8.04460537 L12.138981,8.22689144 L11.7290846,8.22689144 L11.7876612,8.03355335 L11.8621783,7.84017914 C11.9243745,7.6773244 11.975468,7.55358513 12.0112473,7.47557089 C12.0146582,7.44353448 11.9944366,7.42738986 11.9313703,7.42031079 C11.8119549,7.40087947 11.6243221,7.38805768 11.3670797,7.38166485 C11.2882816,7.71752341 11.2158876,7.97962961 11.1434936,8.2047874 Z M14.2311334,7.42031079 C14.0867631,7.47004488 13.8623068,7.56084479 13.5497247,7.6965029 C13.6480831,7.98753939 13.7189805,8.27788964 13.7679857,8.56935954 C13.878491,8.52580159 14.1182266,8.44031097 14.4813105,8.30418333 C14.3299443,7.7385078 14.2432803,7.44263154 14.2311334,7.42031079 Z M14.6463549,8.2047874 L15.0722267,8.2047874 L14.8699411,9.20467002 L14.3375666,9.20467002 L14.2257735,9.74051233 L14.7634383,9.74051233 L14.6622955,10.2321466 L14.3375666,11.8286937 L14.9338079,11.8286937 L15.2532466,10.2321466 L15.3543894,9.74051233 L15.7802263,9.74051233 L15.6950589,10.1437665 C15.6888985,10.1735998 15.6844086,10.202819 15.6791183,10.2321466 C15.5700748,10.8245853 15.6261106,11.2879394 15.844128,11.6187776 C15.976978,11.8147884 16.1373586,11.8976785 16.3285762,11.8674119 C16.5265808,11.8779944 16.7248639,11.5462894 16.9194924,10.8730192 C16.7588429,10.7974114 16.5973492,10.7237503 16.4350442,10.652051 C16.3383912,10.9605324 16.2783181,11.0606145 16.2540591,10.9503833 C16.2159478,10.7930546 16.2238485,10.5537386 16.2753597,10.2321827 C16.2919616,10.1283443 16.3132621,10.0167406 16.3392265,9.89520447 L16.7917239,7.66890897 L14.7581828,7.66890897 L14.6463549,8.2047874 Z M24.2857931,0.392274422 L24.0835423,1.24302703 L23.3062811,1.24302703 L23.1572468,1.87281149 L26,1.87281149 L24.2857931,0.392274422 L24.2857931,0.392274422 Z M9.34415406,8.12742327 L9.62628192,8.12742327 L9.4931883,8.78480167 L9.21638557,8.78480167 L9.34415406,8.12742327 L9.34415406,8.12742327 Z M15.6631777,8.2047874 L16.11035,8.2047874 L15.9080644,9.20467002 L15.4608921,9.20467002 L15.6631777,8.2047874 Z M5.19040779,1.05517883 C4.59970041,1.05517883 4.08740829,1.21539698 3.6519304,1.53579716 C3.21881923,1.86085653 2.93752669,2.2866843 2.81080234,2.81190801 C2.80335411,2.8426803 2.79548822,2.87023811 2.7895366,2.90028804 C2.69222233,3.38802156 2.77846867,3.78574976 3.05039872,4.08805497 C3.34018364,4.40625198 3.78739075,4.56311118 4.39191564,4.56311118 C5.4223123,4.56311118 6.21213805,3.91078926 6.29239796,3.83945679 L5.84522565,3.73449873 C5.74004549,3.75967277 5.16722778,3.93184589 4.59420125,3.87813885 C3.87127036,3.81074321 3.70733967,3.261429 3.74778287,2.98870419 L6.64907774,2.98870419 L6.67570343,2.90032416 L6.69700397,2.80641812 C6.82860099,2.25883755 6.75895655,1.82817001 6.48939323,1.51925525 C6.2176024,1.20766779 5.7870668,1.05517883 5.19040779,1.05517883 L5.19040779,1.05517883 Z M13.7878593,1.05517883 C13.16628,1.05517883 12.6041126,1.22247605 12.0949877,1.56342721 C11.5849927,1.90463119 11.272167,2.32731673 11.1527169,2.82299614 C11.1461387,2.85015666 11.1365326,2.87356094 11.1314511,2.90032416 C11.0422464,3.36039152 11.1604087,3.74955982 11.4828058,4.06595093 C11.8247631,4.39783655 12.3087937,4.5631473 12.9361158,4.5631473 C13.3162192,4.5631473 13.7150476,4.48137681 14.1338888,4.32011124 L14.3787755,3.30917661 C14.1002673,3.5316978 13.8666574,3.67952758 13.6813913,3.756675 C13.4902085,3.8362062 13.2833982,3.87817497 13.0585243,3.87817497 C12.7061255,3.87817497 12.4395206,3.78007928 12.2600322,3.57987883 C12.101183,3.39954311 12.0443119,3.17062908 12.0896626,2.90036027 C12.0947441,2.87056317 12.1034801,2.84271641 12.1109283,2.81198024 C12.1844013,2.50750797 12.3611402,2.25161401 12.6433028,2.04964379 C12.9248042,1.84767357 13.2435815,1.74578551 13.5961891,1.74578551 C13.8208542,1.74578551 14.0027094,1.78537052 14.1498294,1.8673216 C14.2997685,1.94663609 14.4568775,2.09558551 14.6183022,2.30925787 L14.863189,1.28727122 C14.5457342,1.13052037 14.1875578,1.05517883 13.7878593,1.05517883 L13.7878593,1.05517883 Z M17.2960458,1.05517883 C16.7051296,1.05517883 16.1928374,1.21539698 15.7575684,1.53579716 C15.3242484,1.86085653 15.0429558,2.2866843 14.9164403,2.81190801 C14.9089921,2.8426803 14.9013002,2.87023811 14.8951746,2.90028804 C14.7976515,3.38802156 14.8836542,3.78574976 15.1560019,4.08805497 C15.445404,4.40625198 15.8932376,4.56311118 16.4975536,4.56311118 C17.5275326,4.56311118 18.3179849,3.91078926 18.3980359,3.83945679 L17.9508636,3.73449873 C17.8456835,3.75967277 17.2728658,3.93184589 16.6998392,3.87813885 C15.9771172,3.81074321 15.8125252,3.261429 15.8534208,2.98870419 L18.7547157,2.98870419 L18.7813414,2.90032416 L18.802642,2.80641812 C18.9346566,2.25883755 18.869502,1.82817001 18.6003563,1.51925525 C18.3286003,1.20766779 17.8929484,1.05517883 17.2960458,1.05517883 L17.2960458,1.05517883 Z M9.74733308,1.14908487 C9.33681025,1.14908487 8.93540627,1.28077003 8.54423492,1.54684918 L7.67648118,1.24302703 L7.2772003,2.90028804 L6.87791942,4.56311118 L7.82019028,4.56311118 L8.20346094,2.96111026 C8.20840322,2.94055928 8.21452887,2.91888866 8.21943635,2.90028804 C8.31737711,2.51848775 8.4487653,2.24623247 8.60806695,2.08825362 C8.77881939,1.92030628 9.01604904,1.83965544 9.32671685,1.83965544 C9.61246441,1.83965544 9.79752163,1.89997201 9.87503196,2.02746752 C9.95574433,2.15210973 9.9540389,2.3796874 9.87503196,2.70694995 L9.83243086,2.90028804 L9.42785965,4.56311118 L10.3700957,4.56311118 L10.7693766,2.90028804 L10.8599039,2.52466388 C10.97295,2.05643392 10.9418693,1.72122547 10.7640514,1.51372924 C10.5590511,1.27062095 10.219182,1.14908487 9.74733308,1.14908487 L9.74733308,1.14908487 Z M21.7731288,1.14908487 C21.3623623,1.14908487 20.9616197,1.28077003 20.5700306,1.54684918 L19.7022769,1.24302703 L19.302996,2.90028804 L18.90375,4.56311118 L19.845986,4.56311118 L20.2292915,2.96111026 C20.234373,2.94055928 20.2401506,2.91888866 20.2452669,2.90028804 C20.3436253,2.51848775 20.4741434,2.24623247 20.6338627,2.08825362 C20.8048588,1.92030628 21.0414271,1.83965544 21.3525126,1.83965544 C21.6380861,1.83965544 21.8231085,1.89997201 21.9008625,2.02746752 C21.9813312,2.15210973 21.9798694,2.3796874 21.9008625,2.70694995 L21.8529363,2.90028804 L21.4536554,4.56311118 L22.3959262,4.56311118 L22.7951723,2.90028804 L22.8856996,2.52466388 C22.9987805,2.05643392 22.967491,1.72122547 22.789882,1.51372924 C22.5850556,1.27062095 22.2445601,1.14908487 21.7731288,1.14908487 L21.7731288,1.14908487 Z M12.9694588,8.82900974 L12.8576657,9.37041418 L13.3847151,9.37041418 L13.2090203,10.2321827 L13.0972273,10.8067432 C13.0729683,10.9269429 12.9803527,11.0522352 12.8203897,11.1878933 C12.7733336,11.2281285 12.744376,11.2539887 12.7405475,11.2652936 C12.799124,11.4555617 12.9034688,11.6411345 13.049301,11.8121879 C13.0606126,11.815294 13.1229828,11.7582642 13.2302861,11.6464438 C13.3904579,11.4703338 13.7966997,11.0821046 14.4547196,10.4808531 C14.4525617,10.4730878 14.4163647,10.3924731 14.3482517,10.2433069 L14.3429265,10.2322188 L14.2471089,10.0112868 L14.1406409,10.1051928 C14.0895126,10.1518208 14.0400898,10.1947286 13.996897,10.2322549 C13.8819019,10.3356599 13.7946114,10.4115071 13.7360349,10.4587491 L13.7839611,10.2322549 L14.066089,8.82908198 L12.9694588,8.82908198 L12.9694588,8.82900974 L12.9694588,8.82900974 Z M5.04137356,1.74571328 C5.54092712,1.74571328 5.80794969,1.94945327 5.83986571,2.35891972 L3.96068394,2.35891972 C4.01390051,2.26346062 4.07567906,2.17992036 4.15235408,2.10479553 C4.2283678,2.03010411 4.31416168,1.96357529 4.40789106,1.91142132 C4.50412638,1.85659464 4.60485152,1.81729858 4.71131946,1.78988524 C4.81899802,1.76022215 4.92996596,1.74537103 5.04137356,1.74571328 L5.04137356,1.74571328 Z M17.1470115,1.74571328 C17.6465651,1.74571328 17.9140053,1.94945327 17.9455037,2.35891972 L16.0663219,2.35891972 C16.119991,2.26346062 16.1819435,2.17992036 16.2579573,2.10479553 C16.3344234,2.03010411 16.4208786,1.96357529 16.5134942,1.91142132 C16.6105997,1.85659464 16.7104895,1.81729858 16.8169574,1.78988524 C16.9246399,1.76024265 17.0356052,1.74539189 17.1470115,1.74571328 L17.1470115,1.74571328 Z M9.12056791,9.24335208 L9.39737063,9.24335208 L9.27492728,9.85655852 L8.99808975,9.85655852 L9.12056791,9.24335208 Z M11.1595038,9.3206801 L11.3245134,9.3206801 C11.3473964,9.38853628 11.3777745,9.45341442 11.4150408,9.51401819 L11.0104348,9.51401819 L11.0849867,9.41458614 L11.1595038,9.3206801 L11.1595038,9.3206801 Z M23.8971973,2.0164155 L23.6842614,2.90028804 L23.2796902,4.56311118 L24.2166011,4.56311118 L24.6212071,2.90028804 L24.834143,2.0164155 L23.8971973,2.0164155 Z M11.2499615,9.95046456 L11.1967449,10.2321827 L11.1595038,10.392437 L10.7016812,10.392437 C10.7187356,10.3332039 10.7340497,10.2801831 10.7496074,10.2321827 C10.7672883,10.1769587 10.7815583,10.1298973 10.7975337,10.0885426 C10.7751542,10.0752874 10.7615455,10.0664746 10.7496074,10.0664746 L10.4727699,10.0664746 L10.5845282,9.95046456 L11.2499615,9.95046456 Z" id="Shape"></path>
            </g>
        </g>
    </g>
</svg>