<?xml version="1.0" encoding="UTF-8"?>
<svg width="32px" height="32px" viewBox="0 0 32 32" version="1.1" xmlns="http://www.w3.org/2000/svg" xmlns:xlink="http://www.w3.org/1999/xlink">
    <!-- Generator: Sketch 47.1 (45422) - http://www.bohemiancoding.com/sketch -->
    <title>TSLA</title>
    <desc>Created with Sketch.</desc>
    <defs></defs>
    <g id="Page-1" stroke="none" stroke-width="1" fill="none" fill-rule="evenodd">
        <g id="TSLA" fill-rule="nonzero">
            <circle id="Oval" fill="#E82127" cx="16" cy="16" r="16"></circle>
            <g id="T" transform="translate(5.000000, 7.000000)" fill="#FFFFFF">
                <path d="M11.0126457,21.9392835 L14.0853701,4.65811024 C17.0142283,4.65811024 17.9380551,4.97927559 18.0714409,6.2901811 C18.0714409,6.2901811 20.0361969,5.55759843 21.0271496,4.06974016 C17.1601732,2.27786614 13.274748,2.19705512 13.274748,2.19705512 L11.0075354,4.95848819 L11.0126457,4.95814173 L8.74543307,2.19662205 C8.74543307,2.19662205 4.85992126,2.27751969 0.993464567,4.0693937 C1.98355118,5.55725197 3.94908661,6.28983465 3.94908661,6.28983465 C4.08325197,4.97884252 5.00595276,4.65767717 7.91514961,4.65559843 L11.0126457,21.9392835" id="path35"></path>
                <path d="M11.0114331,1.3994252 C14.1373386,1.37551969 17.7152835,1.88299213 21.3780236,3.47937795 C21.8675669,2.59825197 21.9934173,2.20883465 21.9934173,2.20883465 C17.9895039,0.624748031 14.2398898,0.0826299213 11.011,0.0690314961 C7.78228346,0.0826299213 4.03284252,0.624834646 0.0294488189,2.20883465 C0.0294488189,2.20883465 0.208047244,2.68850394 0.644409449,3.47937795 C4.30645669,1.88299213 7.88500787,1.37551969 11.011,1.3994252 L11.0114331,1.3994252" id="path37"></path>
            </g>
        </g>
    </g>
</svg>