<?xml version="1.0" encoding="UTF-8"?>
<svg width="32px" height="32px" viewBox="0 0 32 32" version="1.1" xmlns="http://www.w3.org/2000/svg" xmlns:xlink="http://www.w3.org/1999/xlink">
    <!-- Generator: Sketch 47.1 (45422) - http://www.bohemiancoding.com/sketch -->
    <title>UNH</title>
    <desc>Created with Sketch.</desc>
    <defs></defs>
    <g id="Page-1" stroke="none" stroke-width="1" fill="none" fill-rule="evenodd">
        <g id="UNH">
            <circle id="Oval" fill="#345AA2" fill-rule="nonzero" cx="16" cy="16" r="16"></circle>
            <g id="Logo" transform="translate(10.000000, 5.000000)" fill="#FFFFFF">
                <path d="M4.8609,3.2417 L5.8179,3.3594 L5.8179,11.3751 C5.8179,13.5278 5.6991,15.3241 5.4593,16.5187 C4.9808,18.194 4.0238,18.9123 3.4254,19.151 L2.2286,18.9123 L1.9899,18.9123 C2.1098,19.3919 2.4684,19.7505 2.9469,19.8704 C3.0657,20.229 3.4254,20.5876 3.9039,20.7064 C4.2625,21.3059 4.741,21.5446 5.4593,21.5446 C6.2964,21.6645 6.8948,21.3059 7.6131,20.8274 C9.647,19.3919 10.3642,16.1612 10.3642,11.8558 L10.3642,0.2508 L4.8609,3.2417 L4.8609,3.2417 Z M3.3055,19.8704 C4.9797,19.6295 5.9378,17.7155 6.1765,16.8773 C6.5351,15.5628 6.655,14.0074 6.655,12.2133 L6.655,2.2836 L7.612,2.4035 L7.612,11.7337 C7.612,14.0063 7.4921,16.0413 7.0147,17.4768 C6.4163,18.7913 5.5792,19.7494 4.5023,19.9881 L3.3055,19.8704 L3.3055,19.8704 Z M9.5271,11.7348 C9.5271,14.8456 9.1685,16.9983 8.4502,18.4338 C7.7319,19.8715 6.655,20.7064 5.5792,20.9473 L4.2636,20.7064 C6.0577,20.7064 7.1346,19.0333 7.6131,18.0741 C8.2115,16.7596 8.4513,14.8445 8.4513,12.0923 L8.4513,1.2067 L9.5282,1.4454 L9.5282,11.7348 L9.5271,11.7348 Z" id="Shape" fill-rule="nonzero"></path>
                <path d="M4.5023,16.401 C3.9039,18.6736 2.7071,18.9123 2.2286,18.9123 C1.3915,18.9123 0.5544,18.315 0.5544,14.487 L0.5544,5.5154 L4.862,3.2428 L4.862,11.9746 C4.8609,13.2902 4.741,15.4429 4.5023,16.401 Z" id="Path"></path>
            </g>
        </g>
    </g>
</svg>