<?xml version="1.0" encoding="UTF-8"?>
<svg width="32px" height="32px" viewBox="0 0 32 32" version="1.1" xmlns="http://www.w3.org/2000/svg" xmlns:xlink="http://www.w3.org/1999/xlink">
    <!-- Generator: Sketch 47.1 (45422) - http://www.bohemiancoding.com/sketch -->
    <title>V</title>
    <desc>Created with Sketch.</desc>
    <defs></defs>
    <g id="Page-1" stroke="none" stroke-width="1" fill="none" fill-rule="evenodd">
        <g id="V" fill-rule="nonzero">
            <circle id="Oval" fill="#00579F" cx="16" cy="16" r="16"></circle>
            <g id="logo" transform="translate(4.000000, 12.500000)" fill="#FFFFFF">
                <polygon id="polygon9" points="9.52422596 7.01063314 7.74377024 7.01063314 8.85739481 0.124815334 10.6377532 0.124815334"></polygon>
                <path d="M15.9785362,0.293153932 C15.627352,0.153829158 15.070345,-2.52768571e-06 14.3816075,-2.52768571e-06 C12.6233503,-2.52768571e-06 11.3851999,0.93759186 11.3776057,2.27806949 C11.3630014,3.26707092 12.2640851,3.81638634 12.9380237,4.14615085 C13.6268586,4.48312013 13.8610138,4.7030605 13.8610138,5.00342173 C13.8540037,5.46472206 13.3043962,5.67736029 12.7917862,5.67736029 C12.0809475,5.67736029 11.7000681,5.56773088 11.121252,5.3110851 L10.8868047,5.20106624 L10.6376558,6.74678259 C11.0552407,6.9370276 11.8245938,7.10585301 12.6233503,7.11325251 C14.491529,7.11325251 15.7077729,6.19016503 15.7221825,4.76167231 C15.7292899,3.97781225 15.2534826,3.37718714 14.2276784,2.88638618 C13.6049522,2.57132331 13.2235859,2.3588798 13.2235859,2.03651479 C13.2308881,1.7434557 13.5461456,1.44328919 14.249098,1.44328919 C14.8279141,1.42858755 15.2531905,1.5677176 15.5753608,1.70694501 L15.7363973,1.78006374 L15.9785362,0.293153932 L15.9785362,0.293153932 L15.9785362,0.293153932 Z" id="path11"></path>
                <path d="M18.3449153,4.57123258 C18.4915423,4.17565148 19.055754,2.64463676 19.055754,2.64463676 C19.0483545,2.6593384 19.2020889,2.24175352 19.2900066,1.98539984 L19.414435,2.57872281 C19.414435,2.57872281 19.751599,4.22696116 19.8248151,4.57123258 C19.546555,4.57123258 18.6965863,4.57123258 18.3449153,4.57123258 L18.3449153,4.57123258 Z M20.5426639,0.124815334 L19.1654808,0.124815334 C18.7407885,0.124815334 18.4181314,0.249243748 18.2348965,0.696134531 L15.5902572,7.01053578 L17.4584359,7.01053578 C17.4584359,7.01053578 17.7660019,6.1606644 17.8321106,5.97762416 C18.0370573,5.97762416 19.8544131,5.97762416 20.1180689,5.97762416 C20.1691839,6.21937358 20.3305124,7.01053578 20.3305124,7.01053578 L21.9790429,7.01053578 L20.5426639,0.124815334 L20.5426639,0.124815334 L20.5426639,0.124815334 Z" id="path13"></path>
                <path d="M6.25666571,0.124815334 L4.51301276,4.82028413 L4.32247566,3.86798811 C4.00011066,2.76916254 2.98910545,1.57531182 1.86087661,0.981696768 L3.45800001,7.00333101 L5.34078301,7.00333101 L8.13935134,0.124815334 L6.25666571,0.124815334 L6.25666571,0.124815334 L6.25666571,0.124815334 Z" id="path15"></path>
                <path d="M2.89388559,0.124815334 L0.0293059299,0.124815334 L2.01802207e-08,0.263945384 C2.2345513,0.835361943 3.71445106,2.2127397 4.32247566,3.8682802 L3.69974942,0.703631392 C3.59722742,0.263848022 3.28216455,0.139322246 2.89388559,0.124815334 L2.89388559,0.124815334 Z" id="path17"></path>
            </g>
        </g>
    </g>
</svg>