<?xml version="1.0" encoding="UTF-8"?>
<svg width="32px" height="32px" viewBox="0 0 32 32" version="1.1" xmlns="http://www.w3.org/2000/svg" xmlns:xlink="http://www.w3.org/1999/xlink">
    <!-- Generator: Sketch 47.1 (45422) - http://www.bohemiancoding.com/sketch -->
    <title>WFC</title>
    <desc>Created with Sketch.</desc>
    <defs></defs>
    <g id="Page-1" stroke="none" stroke-width="1" fill="none" fill-rule="evenodd">
        <g id="WFC" fill-rule="nonzero">
            <circle id="Oval" fill="#CD1309" cx="16" cy="16" r="16"></circle>
            <g id="logo" transform="translate(4.700000, 11.300000)" fill="#FFFFFF">
                <path d="M4.39189709,7.12402368 C4.39189709,6.83212056 4.35545431,6.57702105 4.24612595,6.35800351 C4.1003548,6.17542875 3.84489447,6.1397076 3.44366299,6.1397076 L2.53187167,6.1397076 L2.53187167,7.23335204 L2.82377478,7.23335204 C3.26144905,7.23335204 3.33433462,7.12402368 3.33433462,6.57738187 L3.69912332,6.57738187 L3.69912332,8.40060369 L3.33433462,8.40060369 C3.33433462,7.78035467 3.26144905,7.63458352 2.82377478,7.63458352 L2.53187167,7.63458352 L2.53187167,8.58317845 C2.53187167,8.91152435 2.56831445,8.91152435 2.89666036,8.91152435 L3.29789184,8.91152435 L3.29789184,9.34847698 L1.07307772,9.34847698 L1.07307772,8.91152435 L1.29173444,8.91152435 C1.58363756,8.91152435 1.69296592,8.87472075 1.69296592,8.58317845 C1.69296592,6.43088908 1.69296592,8.58317845 1.69296592,6.43088908 C1.69296592,6.1397076 1.58327674,6.10326482 1.29173444,6.10326482 L1.07307772,6.10326482 L1.07307772,5.70239416 C4.79312857,5.70239416 1.07307772,5.70239416 4.79312857,5.70239416 L4.79312857,7.1243845 L4.39189709,7.1243845 L4.39189709,7.12402368 Z" id="Shape"></path>
                <path d="M12.7798721,8.32771812 L12.4515262,8.32771812 C12.4515262,8.72858878 12.4515262,8.91116354 12.2328695,8.91116354 C12.1235411,8.91116354 12.0142127,8.80111353 12.0142127,8.58281763 C12.0142127,8.50957124 12.0142127,8.43704648 12.0142127,8.40024287 C11.97777,7.89004385 11.8684416,7.67102631 11.2481926,7.48845155 C11.9409664,7.4159268 12.3421978,7.08758089 12.3421978,6.57738187 C12.3421978,5.95713285 11.9045236,5.70203334 10.9927322,5.70203334 L8.47637583,5.70203334 L8.47637583,6.102904 L8.76827894,6.102904 C9.09662485,6.102904 9.13306764,6.1397076 9.13306764,6.43052826 L9.13306764,8.58281763 C9.13306764,8.83791714 8.98729649,8.91116354 8.76827894,8.91116354 L8.51281861,8.91116354 C8.29416189,8.91116354 8.18447271,8.83791714 8.07514435,8.58281763 L6.90825351,5.70203334 L6.03290498,5.70203334 L4.79276775,8.58281763 C4.68343939,8.83791714 4.61055382,8.91116354 4.3186507,8.91116354 L4.17287955,8.91116354 L4.17287955,9.34811616 L6.06934777,9.34811616 L6.06934777,8.91116354 L5.66811629,8.91116354 C5.48590235,8.91116354 5.37621317,8.91116354 5.37621317,8.80111353 C5.37621317,8.76430993 5.41265596,8.69178517 5.44909875,8.61853878 L5.63131268,8.18086451 L7.01722106,8.18086451 L7.19943499,8.58245681 C7.23587778,8.65498157 7.23587778,8.72822796 7.23587778,8.76430993 C7.23587778,8.91080272 7.12654942,8.91080272 6.94397466,8.91080272 L6.54274318,8.91080272 L6.54274318,9.34775534 L10.6636647,9.34775534 L10.6636647,8.91080272 L10.3353188,8.91080272 C10.0069729,8.91080272 9.9705301,8.91080272 9.9705301,8.58245681 L9.9705301,7.63386188 L10.3353188,7.63386188 C10.955207,7.63386188 11.1377818,7.74391188 11.1742245,8.36307845 L11.1742245,8.76394911 C11.2106673,9.27486977 11.5390132,9.42064092 12.0495731,9.42064092 C12.4868865,9.42064092 12.7787896,9.16554141 12.7787896,8.47204599 C12.7798721,8.43668566 12.7798721,8.36343927 12.7798721,8.32771812 Z M5.77780547,7.74391188 L6.36125089,6.35764269 L6.90825351,7.74391188 L5.77780547,7.74391188 Z M10.7376327,7.19654844 L9.97161256,7.23335204 L9.97161256,6.102904 L10.7376327,6.102904 C11.2481926,6.102904 11.5036529,6.24867515 11.5036529,6.64990663 L11.5036529,6.68671023 C11.5032921,7.05077729 11.2481926,7.19654844 10.7376327,7.19654844 Z" id="Shape"></path>
                <path d="M16.0258059,6.86820253 C15.8432311,6.3211999 15.4788033,6.06610039 14.8953579,6.06610039 C14.3119124,6.06610039 13.8374346,6.54021745 13.8374346,7.48809073 C13.8374346,8.43668566 14.2022233,8.91080272 14.8953579,8.94688468 C15.3694749,8.94688468 15.8071492,8.69178517 15.8071492,8.29091451 L15.8071492,8.07189697 C15.8071492,7.81679746 15.7703456,7.81679746 15.4059177,7.81679746 L15.2237038,7.81679746 L15.2237038,7.4159268 L16.9375972,7.4159268 L16.9375972,7.81679746 L16.7918261,7.81679746 C16.5367266,7.81679746 16.499923,7.81679746 16.499923,8.10870058 L16.499923,9.31239501 L16.1715771,9.31239501 L15.9890023,9.0204919 C15.6606564,9.27559141 15.1865393,9.42136256 14.7488651,9.42136256 C14.2383052,9.42136256 13.8370738,9.2387878 13.5090887,8.87435993 C13.1443,8.50921042 12.9256432,8.03509336 12.9256432,7.48809073 C12.9256432,6.90464532 13.1078572,6.46697105 13.4726459,6.10254318 C13.8009918,5.77419727 14.2751088,5.62842612 14.7856687,5.62842612 C15.1865393,5.62842612 15.6610172,5.73775449 15.9161167,6.02929678 L16.0983307,5.62842612 L16.3902338,5.62842612 L16.3902338,6.86820253 L16.0258059,6.86820253 Z" id="Shape"></path>
                <path d="M19.3442645,9.38455895 C18.1409308,9.38455895 17.1926967,8.65534239 17.1926967,7.48809073 C17.1926967,6.35764269 18.1409308,5.62842612 19.3442645,5.62842612 C20.5475981,5.62842612 21.4593894,6.35764269 21.4593894,7.52489434 C21.4593894,8.65534239 20.5475981,9.38455895 19.3442645,9.38455895 Z M20.5840409,7.52489434 C20.5840409,6.21187154 19.7086923,6.06610039 19.3439036,6.06610039 C18.6511299,6.06610039 18.1037664,6.57702105 18.1037664,7.52489434 C18.1037664,8.47276763 18.6511299,8.98368829 19.3439036,8.98368829 C19.7090532,8.98368829 20.5840409,8.80111353 20.5840409,7.52489434 Z" id="Shape"></path>
                <path d="M13.6187778,3.18495528 C13.5094495,3.403612 13.2539892,3.44041561 12.8163149,3.44041561 L11.9045236,3.44041561 L11.9045236,0.996944764 C11.9045236,0.705402466 11.97777,0.668598859 12.3421978,0.668598859 L12.5976582,0.668598859 L12.5976582,0.230924593 L10.4096476,0.230924593 L10.4096476,0.668598859 L10.5918616,0.668598859 C10.9202075,0.668598859 11.1024214,0.668598859 11.1024214,0.996944764 L11.1024214,3.14887331 C11.1024214,3.44041561 10.9566503,3.4768584 10.6283044,3.4768584 L10.4457296,3.4768584 L10.4457296,3.87808988 L14.2022233,3.87808988 L14.2022233,2.41929593 C14.2022233,2.41929593 13.8374346,2.41929593 13.764549,2.41929593 C13.764549,2.74728101 13.7281062,2.96629856 13.6187778,3.18495528 Z" id="Shape"></path>
                <path d="M8.84116452,3.44041561 L7.67427369,3.44041561 L7.67427369,2.20027838 L7.92973402,2.20027838 C8.36740828,2.20027838 8.44029386,2.27316396 8.47673665,2.89305216 L8.87796813,2.89305216 L8.87796813,1.06946952 L8.47673665,1.06946952 C8.44029386,1.61647215 8.36740828,1.7622433 7.92973402,1.7622433 L7.67427369,1.7622433 L7.67427369,0.66823804 L8.65895058,0.66823804 C9.38816715,0.66823804 9.60718469,0.814009189 9.64362748,1.65291494 L10.044859,1.65291494 L10.044859,0.230924593 C6.21547974,0.230924593 9.82620223,0.230924593 6.43449728,0.230924593 L4.64735743,0.230924593 L4.64735743,0.668598859 L4.90281776,0.668598859 C5.12147448,0.668598859 5.19472087,0.705402466 5.19472087,0.814370008 C5.19472087,0.887616403 5.19472087,0.960501977 5.15827809,1.10627313 L4.46550431,2.92985577 C4.46550431,2.92985577 4.46550431,2.92985577 4.42906152,2.92985577 C4.10071562,2.01806445 3.66304135,0.960501977 3.66304135,0.960501977 C3.62659856,0.887616403 3.62659856,0.850812796 3.62659856,0.814370008 C3.62659856,0.705041647 3.69948414,0.668598859 3.88205889,0.668598859 L4.17396201,0.668598859 L4.17396201,0.230924593 L2.24105101,0.230924593 L2.24105101,0.668598859 L2.49651134,0.668598859 C2.78841446,0.668598859 2.89774282,0.814370008 2.9341856,1.10627313 L2.20496904,2.92985577 C2.20496904,2.92985577 2.20496904,2.92985577 2.16852625,2.92985577 C1.84018035,1.94517887 1.40250608,0.92405919 1.40250608,0.92405919 C1.36606329,0.887616403 1.40250608,0.851173615 1.40250608,0.814730828 C1.36606329,0.705402466 1.47539165,0.668959679 1.6944092,0.668959679 L1.84018035,0.668959679 L1.84018035,0.230924593 L0.0155152461,0.230924593 L0.0155152461,0.668598859 L0.0884008206,0.668598859 C0.343861151,0.668598859 0.562157055,0.814370008 0.671846236,1.14271591 L1.76585149,3.87772906 L2.42218248,3.87772906 L3.22464544,1.87193248 L4.06355119,3.87772906 L4.71988218,3.87772906 L5.74100186,1.10591231 C5.88677301,0.777566402 5.95965859,0.66823804 6.28800449,0.66823804 L6.32444728,0.66823804 C6.65279318,0.66823804 6.83500712,0.66823804 6.83500712,0.996583945 C6.83500712,3.14851249 6.83500712,0.996583945 6.83500712,3.14851249 C6.83500712,3.44005479 6.65279318,3.47649758 6.32444728,3.47649758 L6.10579056,3.47649758 L6.10579056,3.87772906 L10.1173837,3.87772906 L10.1173837,2.41893511 L9.67970944,2.41893511 C9.64362748,3.14887331 9.49749551,3.44041561 8.84116452,3.44041561 Z" id="Shape"></path>
                <path d="M17.6668138,2.41929593 C17.6668138,2.74764183 17.630371,2.96629856 17.5206818,3.1853161 C17.4113535,3.40397282 17.1562539,3.44077643 16.7185797,3.44077643 L15.8432311,3.44077643 L15.8432311,0.997305584 C15.8432311,0.705763286 15.9161167,0.668959679 16.2444626,0.668959679 L16.5363657,0.668959679 L16.5363657,0.230924593 L14.3115516,0.230924593 L14.3115516,0.668598859 L14.567012,0.668598859 C14.8589151,0.668598859 15.0043254,0.668598859 15.0043254,0.996944764 L15.0043254,3.14887331 C15.0043254,3.44041561 14.894997,3.4768584 14.567012,3.4768584 L14.4937656,3.4768584 L14.4937656,3.87808988 L18.1041272,3.87808988 L18.1041272,2.41929593 C18.1041272,2.41929593 17.7396994,2.41929593 17.6668138,2.41929593 Z" id="Shape"></path>
                <path d="M21.8241781,2.82016659 C21.8241781,3.65907233 21.1678471,3.95061463 20.219613,3.95061463 C19.6361676,3.95061463 19.0527222,3.62226873 18.943033,3.51294036 L18.7972618,3.87772906 L18.4324731,3.87772906 L18.4324731,2.41893511 L18.8701474,2.41893511 C18.9794758,3.11170888 19.4535928,3.403612 20.1102846,3.44005479 C20.6937301,3.47649758 21.0949615,3.33072643 21.1314043,2.92949495 C21.2042899,2.45537789 20.6937301,2.49182068 20.2564166,2.41893511 L19.6361676,2.30960675 C18.7247371,2.12703199 18.3963912,1.87193248 18.3963912,1.25168346 C18.3595876,0.595352465 18.9798366,0.157678198 19.7819387,0.157678198 C20.1831702,0.157678198 20.6937301,0.230563773 21.0585187,0.522466891 L21.2407327,0.230563773 L21.5690786,0.230563773 L21.5690786,1.50714379 L21.1678471,1.50714379 C21.0949615,0.814370008 20.3653841,0.595352465 19.7819387,0.595352465 C19.3442645,0.632156072 19.089165,0.850812796 19.089165,1.14271591 C19.089165,1.43425821 19.3442645,1.47106182 19.6726104,1.54394739 L20.4382697,1.65327575 C21.2407327,1.7990469 21.8241781,1.94517887 21.8241781,2.82016659 Z" id="Shape"></path>
            </g>
        </g>
    </g>
</svg>