<?xml version="1.0" encoding="UTF-8"?>
<svg width="32px" height="32px" viewBox="0 0 32 32" version="1.1" xmlns="http://www.w3.org/2000/svg" xmlns:xlink="http://www.w3.org/1999/xlink">
    <!-- Generator: Sketch 47.1 (45422) - http://www.bohemiancoding.com/sketch -->
    <title>WMT</title>
    <desc>Created with Sketch.</desc>
    <defs></defs>
    <g id="Page-1" stroke="none" stroke-width="1" fill="none" fill-rule="evenodd">
        <g id="WMT" fill-rule="nonzero">
            <circle id="Oval" fill="#007DC6" cx="16" cy="16" r="16"></circle>
            <g id="Logo" transform="translate(16.000000, 15.951872) scale(-1, 1) rotate(-180.000000) translate(-16.000000, -15.951872) translate(4.000000, 13.000000)" fill="#FFFFFF">
                <path d="M0.0721925134,1.27112727 C0.0721925134,1.27112727 0.667475936,3.71043209 0.762481283,4.10636791 C0.873368984,4.56849626 1.07316898,4.73858182 1.64922995,4.62387594 L2.02094118,3.11152299 C2.1151508,2.73586524 2.17834011,2.46804706 2.2388984,2.08590802 L2.24955176,2.08590802 C2.29210364,2.47180107 2.35269401,2.73698824 2.43022235,3.1128385 C2.43022235,3.1128385 2.58153465,3.79940535 2.65902128,4.16001497 C2.73671326,4.52049626 2.95292824,4.74769412 3.51718171,4.62400428 L4.40287155,1.27138396 L3.68778064,1.27138396 L3.38541273,2.72088128 C3.30411754,3.14280642 3.23034642,3.47248556 3.17347155,3.85847487 L3.16338225,3.85847487 C3.11169241,3.47633583 3.04594909,3.15971551 2.96329668,2.74863529 L2.64845711,1.27138396 L1.90339829,1.27138396 L1.56662824,2.71141604 C1.47121861,3.14899893 1.38198225,3.50235722 1.32523572,3.87525561 L1.3149584,3.87525561 C1.25684503,3.52407914 1.17944182,3.07998289 1.09562471,2.6563893 C1.09562471,2.6563893 0.895542353,1.6264107 0.825342353,1.27138396 L0.072262139,1.27148021 L0.0721925134,1.27112727 Z M6.88909091,1.27112727 L6.88909091,4.62374759 L7.56991444,4.62374759 L7.56991444,3.91183316 L7.56991444,1.27096684 L6.88909091,1.27096684 L6.88909091,1.27112727 Z M16.477861,1.27112727 L16.477861,3.7444107 C16.477861,4.08541604 16.5420385,4.32432513 16.6793358,4.47028235 C16.7992877,4.59793476 16.9968674,4.68059358 17.2336139,4.68059358 C17.4349027,4.68059358 17.6329508,4.64241818 17.7262877,4.60765027 L17.7175145,4.07560749 C17.6480621,4.09270107 17.5681627,4.10637722 17.4588857,4.10637722 C17.226968,4.10637722 17.1491862,3.95784032 17.1491862,3.65166064 L17.1491862,2.70539326 L17.7421274,2.70539326 L17.7421274,2.06393872 L17.1491862,2.06393872 L17.1491862,1.27113658 L16.4778279,1.27113658 L16.477861,1.27112727 Z M5.36759358,2.04833583 C4.94448128,2.04833583 4.60860963,2.16713583 4.42552941,2.27293476 L4.5595123,2.7317262 C4.72706631,2.62609412 4.99385455,2.53864813 5.24646417,2.53864813 C5.66469947,2.53757326 5.7330738,2.77513476 5.7330738,2.92749305 L5.7330738,2.96352513 C4.82174759,2.96215733 4.24610053,3.27750802 4.24610053,3.92031658 C4.24610053,4.31278717 4.53913797,4.68058396 5.04868877,4.68058396 C5.36235722,4.68058396 5.62468877,4.55548556 5.78190802,4.35504385 L5.79732417,4.35504385 C5.79732417,4.35504385 5.9014354,4.79034866 6.47500332,4.62388556 C6.44487112,4.44271123 6.43508567,4.24954332 6.43508567,4.01689091 L6.43508567,3.12125455 C6.43508567,2.55042032 6.19135412,2.04834545 5.36759904,2.04834545 L5.36759358,2.04833583 Z M9.4402139,2.04833583 C9.01418182,2.04833583 8.82272727,2.26423957 8.70664171,2.44741604 L8.69655241,2.44741604 L8.69655241,2.10519144 L8.04681979,2.10519144 L8.04681979,4.62390802 L8.73126898,4.62390802 L8.73126898,3.14678503 C8.73126898,3.07753797 8.73918225,3.0043123 8.76335455,2.94060963 C8.82006257,2.79188984 8.95842834,2.61792513 9.17934385,2.61792513 C9.4555107,2.61792513 9.58474492,2.85141176 9.58474492,3.18837433 L9.58474492,4.62388235 L10.2684561,4.62388235 L10.2684561,3.1288877 C10.2684561,3.06278503 10.2775181,2.98316471 10.2969699,2.92471765 C10.3531806,2.75554973 10.5023464,2.61789947 10.7076972,2.61789947 C10.9876758,2.61789947 11.1220502,2.84732406 11.1220502,3.2438246 L11.1220502,4.62388877 L11.8062427,4.62388877 L11.8062427,3.14044492 C11.8062427,2.35810267 11.4089913,2.04834866 10.9605635,2.04834866 C10.7619667,2.04834866 10.6052159,2.09814545 10.463494,2.18515187 C10.3443667,2.2582492 10.2377336,2.36210695 10.1445186,2.49886203 L10.1344293,2.49886203 C10.0259801,2.22741818 9.7715416,2.04834866 9.44009775,2.04834866 L9.4402139,2.04833583 Z M13.1987166,2.04833583 C12.7757005,2.04833583 12.439893,2.16713583 12.2566524,2.27293476 L12.3908214,2.7317262 C12.5582118,2.62609412 12.8251636,2.53864813 13.0776449,2.53864813 C13.4955914,2.53757326 13.5641262,2.77513476 13.5641262,2.92749305 L13.5641262,2.96352513 C12.6529283,2.96215733 12.0772171,3.27750802 12.0772171,3.92031658 C12.0772171,4.31278717 12.3704053,4.68058396 12.8802225,4.68058396 C13.1936406,4.68058396 13.456062,4.55548556 13.6129925,4.35504385 L13.6284716,4.35504385 C13.6284716,4.35504385 13.7325635,4.79034866 14.3062149,4.62388556 C14.2760384,4.44271123 14.2663582,4.24954332 14.2663582,4.01689091 L14.2663582,3.12125455 C14.2663582,2.55042032 14.0225625,2.04834545 13.1987111,2.04834545 L13.1987166,2.04833583 Z M16.0410481,2.04833583 C15.778954,2.04833583 15.4807701,2.21751658 15.3556043,2.5801861 L15.3364909,2.5801861 L15.3364909,2.10515936 L14.7203519,2.10515936 L14.7203519,4.62387594 L15.4227369,4.62387594 L15.4227369,3.33413262 C15.4227369,3.26455508 15.4269555,3.20389091 15.437965,3.14826096 C15.4899116,2.87809412 15.6965586,2.70538396 15.9931415,2.70538396 C16.0745586,2.70538396 16.1328292,2.71420235 16.1958709,2.72330663 L16.1958709,2.06391626 C16.1430099,2.05323561 16.1068559,2.04831209 16.0410837,2.04831209 L16.0410481,2.04833583 Z M5.75505882,3.40985455 L5.75505882,3.72406845 C5.75505882,3.77054759 5.75101316,3.81850267 5.73813882,3.86043209 C5.68544791,4.03494225 5.50466503,4.1824107 5.27867358,4.1824107 C5.09026075,4.1824107 4.94058802,4.07547914 4.94058802,3.84926631 C4.94058802,3.50325561 5.32147572,3.40760856 5.75508,3.40985455 L5.75505882,3.40985455 Z M13.5861818,3.40985455 L13.5861818,3.72406845 C13.5861818,3.77054759 13.5820518,3.81850267 13.5692618,3.86043209 C13.5165709,4.03494225 13.3358522,4.1824107 13.1098607,4.1824107 C12.9214062,4.1824107 12.771711,4.07547914 12.771711,3.84926631 C12.771711,3.50325561 13.1525987,3.40760856 13.586203,3.40985455 L13.5861818,3.40985455 Z" id="Shape" transform="translate(8.907160, 2.975780) scale(-1, 1) rotate(-180.000000) translate(-8.907160, -2.975780) "></path>
                <path d="M21.4232086,0.115459893 C21.203416,0.115459893 21.0287166,0.2382 21.0287166,0.38762246 L21.1621989,1.89907701 C21.1769342,1.99013904 21.2884813,2.06038075 21.4233337,2.06038075 C21.5584524,2.06020428 21.6696096,1.99002353 21.6846545,1.89907701 L21.8187722,0.38762246 C21.8187722,0.238212834 21.643585,0.115472727 21.4234781,0.115472727 L21.4232086,0.115459893 Z M19.2479679,1.32787701 C19.133862,1.33058439 19.0042396,1.4169754 18.9217861,1.55993262 C18.8115144,1.75029305 18.8310545,1.96302353 18.960077,2.03765455 L20.3356171,2.67824278 C20.4215487,2.71020385 20.5382567,2.64917904 20.6058385,2.53266738 C20.6058481,2.53265124 20.6058292,2.53261925 20.6058385,2.53260321 C20.6737348,2.41551658 20.6684791,2.28386631 20.5970025,2.22547059 L19.3546495,1.35409091 C19.3223843,1.33540299 19.2860891,1.32699369 19.2480517,1.32789594 L19.2479679,1.32787701 Z M23.5984492,1.32787701 C23.5604214,1.32697444 23.5241807,1.33538406 23.4919765,1.35407198 L22.2494631,2.22545166 C22.1784096,2.28384417 22.1731412,2.41550086 22.2406899,2.53258428 L22.2407541,2.53264845 C22.3085862,2.64916075 22.4249156,2.71018428 22.5108504,2.67822385 L23.8870001,2.0376677 C24.0165584,1.96303668 24.0351263,1.75031583 23.9256022,1.55994578 C23.8427766,1.41698535 23.7129391,1.33059818 23.5988429,1.32789016 L23.5984492,1.32787701 Z M20.3870053,3.32202674 C20.3692104,3.3217861 20.3519583,3.32453519 20.3358064,3.33061219 L18.9602663,3.97043037 C18.8312471,4.04538866 18.811707,4.25819936 18.9219754,4.44876193 C19.0319134,4.63874695 19.2256941,4.72906781 19.3547455,4.65456193 L20.5971947,3.78385604 C20.6686813,3.72474802 20.6739561,3.59313305 20.6060307,3.47616193 L20.6065954,3.47641861 C20.5516778,3.38114053 20.4641227,3.32305604 20.3870082,3.32200684 L20.3870053,3.32202674 Z M22.4600214,3.32202674 C22.3829968,3.32307594 22.295615,3.38116043 22.2405626,3.4764385 L22.2410631,3.47618182 C22.1734717,3.59315294 22.1787048,3.72476791 22.2497737,3.78387594 L23.4922871,4.65458182 C23.6210978,4.7290877 23.8150678,4.63876973 23.9255063,4.44878182 C24.0350304,4.25821283 24.0164625,4.04540214 23.8869042,3.97045027 L22.5111716,3.33063209 C22.4950206,3.32455508 22.477809,3.32180439 22.4600336,3.32204663 L22.4600214,3.32202674 Z M21.423016,3.94843316 C21.2883914,3.94859358 21.1770995,4.0185369 21.162385,4.1093615 L21.0289027,5.62075187 C21.0289027,5.7704246 21.2035989,5.89291444 21.4233947,5.89291444 C21.6435979,5.89291444 21.8186246,5.77042139 21.8186246,5.62075187 L21.684831,4.1093615 C21.6697858,4.0185369 21.5586289,3.94860642 21.4235102,3.94843316 L21.4230096,3.94843316 L21.423016,3.94843316 Z" id="Shape" transform="translate(21.423563, 3.004187) scale(-1, 1) rotate(-180.000000) translate(-21.423563, -3.004187) "></path>
            </g>
        </g>
    </g>
</svg>