<?xml version="1.0" encoding="UTF-8"?>
<svg width="32px" height="32px" viewBox="0 0 32 32" version="1.1" xmlns="http://www.w3.org/2000/svg" xmlns:xlink="http://www.w3.org/1999/xlink">
    <!-- Generator: Sketch 47.1 (45422) - http://www.bohemiancoding.com/sketch -->
    <title>XOM</title>
    <desc>Created with Sketch.</desc>
    <defs></defs>
    <g id="Page-1" stroke="none" stroke-width="1" fill="none" fill-rule="evenodd">
        <g id="XOM" fill-rule="nonzero">
            <circle id="Oval" fill="#ED1B2D" cx="16" cy="16" r="16"></circle>
            <g id="ExxonMobil" transform="translate(2.000000, 13.500000)" fill="#FFFFFF">
                <path d="M10.96592,1.02144 L11.739952,1.02144 L11.739952,1.285872 C11.823056,1.21352 12.091408,0.956592 12.587008,0.956592 C13.170192,0.956592 13.633536,1.38712 13.633536,2.063152 L13.633536,3.817968 L12.815936,3.817968 L12.815936,2.280656 C12.815936,1.903776 12.632144,1.680224 12.299504,1.680224 C11.97728,1.680224 11.783408,1.891008 11.783408,2.280656 L11.783408,3.817968 L10.96592,3.817968 L10.96592,1.02144 L10.96592,1.02144 Z M18.753504,2.419648 C18.753504,1.612912 19.39952,0.956592 20.245568,0.956592 C21.091392,0.956592 21.737184,1.612912 21.737184,2.419648 C21.737184,3.22616 21.09128,3.881696 20.245568,3.881696 C19.39952,3.881696 18.753504,3.22616 18.753504,2.419648 L18.753504,2.419648 Z M19.560576,2.419648 C19.560576,2.805936 19.8492,3.123792 20.250384,3.123792 C20.65224,3.123792 20.941312,2.805936 20.941312,2.419648 C20.941312,2.033136 20.65224,1.715504 20.250384,1.715504 C19.849312,1.715504 19.560576,2.033136 19.560576,2.419648 L19.560576,2.419648 Z M7.525056,2.420208 C7.525056,1.613136 8.171408,0.956816 9.016672,0.956816 C9.862944,0.956816 10.509072,1.613136 10.509072,2.420208 C10.509072,3.226496 9.862944,3.881808 9.016672,3.881808 C8.171296,3.88192 7.525056,3.226496 7.525056,2.420208 L7.525056,2.420208 Z M8.332128,2.419984 C8.332128,2.806496 8.620752,3.124352 9.022384,3.124352 C9.42424,3.124352 9.712864,2.806496 9.712864,2.419984 C9.712864,2.033136 9.42424,1.71584 9.022384,1.71584 C8.620752,1.71584 8.332128,2.033136 8.332128,2.419984 L8.332128,2.419984 Z M25.703216,0.711648 L26.531904,0.711648 L26.531904,0 L25.703216,0 L25.703216,0.711648 Z M25.703216,3.817968 L26.531904,3.817968 L26.531904,1.02144 L25.703216,1.02144 L25.703216,3.817968 Z M27.170976,3.817968 L28,3.817968 L28,0 L27.170976,0 L27.170976,3.817968 Z M23.002336,3.817968 L22.216432,3.817968 L22.216432,0 L23.011296,0 L23.011296,1.243424 C23.05072,1.214416 23.308208,0.956592 23.870784,0.956592 C24.606624,0.956592 25.22072,1.588496 25.22072,2.420208 C25.22072,3.250352 24.56664,3.882256 23.861376,3.882256 C23.324896,3.882256 23.069088,3.646608 23.011296,3.602704 L23.002336,3.817968 L23.002336,3.817968 Z M24.380832,2.41808 C24.380832,2.024848 24.082688,1.71976 23.683408,1.71976 C23.28648,1.71976 22.981728,2.022048 22.981728,2.42032 C22.981728,2.813552 23.282336,3.11864 23.682512,3.11864 C24.078768,3.118528 24.380832,2.812432 24.380832,2.41808 L24.380832,2.41808 Z M2.7048,3.817968 L3.663408,3.817968 L4.525136,2.710512 L5.0624,3.25472 L3.832976,4.794048 L4.794944,4.794048 L5.582192,3.77384 L7.063952,5.28192 L8.22528,5.28192 L6.0956,3.140368 L7.7728,1.02144 L6.810272,1.02144 L5.570768,2.61296 L5.0344,2.073792 L6.413232,0.337344 L5.45328,0.337344 L4.511584,1.54896 L4.000192,1.02144 L2.85488,1.02144 L4.00848,2.186128 L2.7048,3.817968 L2.7048,3.817968 Z M0,0 L0,3.817968 L2.514512,3.817968 L2.514512,3.105536 L0.855456,3.105536 L0.855456,2.193296 L2.440032,2.193296 L2.440032,1.502704 L0.855456,1.502704 L0.855456,0.711312 L2.514512,0.711312 L2.514512,0 L0,0 L0,0 Z M14.2884,0 L14.2884,3.817968 L15.092896,3.817968 L15.092896,0.9352 L15.129408,0.9352 L15.821568,3.81808 L16.725296,3.81808 L17.433696,0.9352 L17.47032,0.9352 L17.47032,3.81808 L18.274704,3.81808 L18.274704,0 L16.961056,0 L16.306976,2.786448 L16.277856,2.786448 L15.640016,0 L14.2884,0 L14.2884,0 Z" id="Shape"></path>
            </g>
        </g>
    </g>
</svg>